<svg id="Layer_2" xmlns="http://www.w3.org/2000/svg" viewBox="0 0 361 241">
    <path class="cls-andreinsekter" d="M190.84,97.08h57.53c4.99,0,9.03-4.04,9.03-9.03h0c0-5.43-4.76-9.63-10.15-8.96l-59.19,7.42c-2.09,.26-3.65,2.03-3.65,4.14h0c0,3.55,2.88,6.44,6.44,6.44Z"/>
    <path class="cls-andreinsekter" d="M175.45,94.56l-4.27,5.97c-1.15,1.6-1.61,3.59-1.3,5.53l6.11,38.06c.82,5.12,8.18,5.12,9,0l6.11-38.08c.31-1.93-.15-3.91-1.28-5.51l-4.22-5.95c-2.48-3.49-7.66-3.5-10.15-.02Z"/>
    <circle class="cls-andreinsekter" cx="180.54" cy="76.18" r="11.46"/>
    <line class="cls-nofill" x1="180.54" y1="64.72" x2="180.54" y2="36.45"/>
    <path class="cls-nofill" d="M184.4,86.97l34.57-11.69-13.18-33.89c6.08-16.52,19.42-27.08,27.59-31"/>
    <path class="cls-nofill" d="M199.02,97.08l19.95,17.71v30.18c25.86,12.41,33.23,21.77,37.85,40.71"/>
    <path class="cls-nofill" d="M189.82,100.54l20.06,25.84-16.52,39c5.41,22.86,14.24,44.61,26.57,65.23"/>
    <path class="cls-andreinsekter" d="M170.16,97.08h-57.53c-4.99,0-9.03-4.04-9.03-9.03h0c0-5.43,4.76-9.63,10.15-8.96l59.19,7.42c2.09,.26,3.65,2.03,3.65,4.14h0c0,3.55-2.88,6.44-6.44,6.44Z"/>
    <path class="cls-nofill" d="M176.6,86.97l-34.57-11.69,13.18-33.89c-6.08-16.52-19.42-27.08-27.59-31"/>
    <path class="cls-nofill" d="M161.98,97.08l-19.95,17.71v30.18c-25.86,12.41-33.23,21.77-37.85,40.71"/>
    <path class="cls-nofill" d="M171.18,100.54l-20.06,25.84,16.52,39c-5.41,22.86-14.24,44.61-26.57,65.23"/>
    <g class="cls-eye-left cls-eye">
        <circle class="cls-white" cx="190.23" cy="67.19" r="7.69"/>
        <path class="cls-nostroke" d="M194.03,73.85c-2.27-1.3-3.81-3.76-3.81-6.57s1.6-5.39,3.97-6.67c1.73,1.04,3.04,2.74,3.53,4.86,.77,3.39-.82,6.75-3.69,8.37Z"/>
    </g>
    <g class="cls-eye-right cls-eye">
        <circle class="cls-white" cx="170.85" cy="67.14" r="7.69"/>
        <path class="cls-nostroke" d="M174.65,73.81c-2.27-1.3-3.81-3.76-3.81-6.57s1.6-5.39,3.97-6.67c1.73,1.04,3.04,2.74,3.53,4.86,.77,3.39-.82,6.75-3.69,8.37Z"/>
    </g>
</svg>