<svg xmlns="http://www.w3.org/2000/svg" viewBox="0 0 361 241">
    <line class="cls-nofill" x1="163.82" y1="170.36" x2="197.18" y2="170.36"/>
    <path class="cls-bierogvepse" d="M197.89,78.67a15.24,15.24,0,0,0-15.24-15.24h-4.3a15.25,15.25,0,0,0-15.24,15.24v3.15h3.53l-1.49,18.63c-.59,7.31,6.74,12.92,15.35,12.92s15.94-5.61,15.35-12.92l-1.49-18.63h3.53Z"/>
    <path class="cls-bierogvepse" d="M163.11,125.48c.55-6.76,7.92-12.11,17.39-12.11s16.84,5.35,17.39,12.11l3,34.27c-4,13.65-10.39,26.06-20.42,34.61-10-8.55-16.41-21-20.42-34.61Z"/>
    <path class="cls-nofill" d="M204,88.47c6.07,0,9-3,10.29-7.82l2.92-9.37,20.27,5.39"/>
    <path class="cls-nofill" d="M251.16,112.81l-15.42-10.76c-4.43-2.9-9.23-4.24-15.5-4.24l-8.79,0"/>
    <polyline class="cls-nofill" points="195.68 47.66 216.58 29.14 230.4 29.14"/>
    <path class="cls-trans" d="M164.58,81.82c-19.94,12.56-54.74,83-54.74,111,0,14.53,4.22,19,11.24,19,18.63,0,38-30.64,39.83-59.29L166.66,82Z"/>
    <line class="cls-nofill" x1="161.37" y1="150.93" x2="199.63" y2="150.93"/>
    <line class="cls-nofill" x1="162.96" y1="131.02" x2="198.04" y2="131.02"/>
    <line class="cls-nofill" x1="165.77" y1="95.97" x2="195.23" y2="95.97"/>
    <path class="cls-nofill" d="M157,88.47c-6.07,0-9-3-10.29-7.82l-2.92-9.37-20.27,5.39"/>
    <path class="cls-nofill" d="M109.84,112.81l15.42-10.76c4.43-2.9,9.23-4.24,15.5-4.24l8.79,0"/>
    <rect class="cls-bierogvepse" x="162.08" y="45.63" width="36.84" height="17.8" rx="8.9"/>
    <polyline class="cls-nofill" points="165.32 47.66 144.42 29.14 130.6 29.14"/>
    <path class="cls-trans" d="M196.42,81.82l-2.08.18,5.75,70.57c1.88,28.65,21.2,59.29,39.83,59.29,7,0,11.24-4.47,11.24-19C251.16,164.8,216.36,94.38,196.42,81.82Z"/>
    <line class="cls-nofill" x1="194.13" y1="81.82" x2="166.87" y2="81.82"/>
    <g class="cls-eye-left cls-eye">
        <circle class="cls-white" cx="194.36" cy="53.84" r="9.6"/>
        <path class="cls-nostroke" d="M199.1,62.16a9.46,9.46,0,0,1,.21-16.53,9.56,9.56,0,0,1-.21,16.53Z"/>
    </g>
    <g class="cls-eye-right cls-eye">
        <circle class="cls-white" cx="166.66" cy="53.84" r="9.6"/>
        <path class="cls-nostroke" d="M171.4,62.16a9.47,9.47,0,0,1,.2-16.53,9.57,9.57,0,0,1-.2,16.53Z"/>
    </g>
</svg>