<svg xmlns="http://www.w3.org/2000/svg" viewBox="0 0 361 241">
            <path class="cls-trans" d="M286.6,87.48,325,99.23a14.52,14.52,0,0,1,9.55,18.39h0a16.3,16.3,0,0,1-14.18,11.19l-15.58,1.27a104.84,104.84,0,0,1-72.4-21.38L192.79,78.89"/>
            <path class="cls-trans" d="M74.4,87.48,36,99.23a14.52,14.52,0,0,0-9.55,18.39h0a16.3,16.3,0,0,0,14.18,11.19l15.58,1.27a104.84,104.84,0,0,0,72.4-21.38L168.2,78.89"/>
            <path class="cls-trans" d="M196.55,60.42,333.31,29.6a15.7,15.7,0,0,1,18.84,12.15h0a17.65,17.65,0,0,1-7.32,18.12l-13.95,9.54a113.37,113.37,0,0,1-79.49,18.75l-54-7.42a10.33,10.33,0,0,1-8.93-10.24h0A10.33,10.33,0,0,1,196.55,60.42Z"/>
            <path class="cls-guldsmede" d="M180.5,227h0a9.49,9.49,0,0,0,9.48-9.87L185.24,76.56A4.53,4.53,0,0,0,180.5,72"/>
            <path class="cls-trans" d="M164.45,60.42,27.69,29.6A15.7,15.7,0,0,0,8.85,41.75h0a17.65,17.65,0,0,0,7.32,18.12l14,9.54a113.37,113.37,0,0,0,79.49,18.75l54-7.42a10.33,10.33,0,0,0,8.93-10.24h0A10.33,10.33,0,0,0,164.45,60.42Z"/>
            <path class="cls-guldsmede" d="M180.5,227h0a9.49,9.49,0,0,1-9.48-9.87l4.74-140.56A4.53,4.53,0,0,1,180.5,72"/>
            <circle class="cls-guldsmede" cx="180.74" cy="38.39" r="15.11"/>
            <circle class="cls-guldsmede" cx="180.74" cy="62.76" r="9.25"/>
            <polyline class="cls-nofill" points="188.66 57.31 210.57 46.09 223.13 14.01"/>
            <polyline class="cls-nofill" points="172.81 57.31 150.9 46.09 138.34 14.01"/>
    <g class="cls-eye-left cls-eye">
            <circle class="cls-white" cx="193.07" cy="28.8" r="9.6"/>
            <path class="cls-nostroke" d="M197.82,37.12a9.46,9.46,0,0,1,.2-16.53,9.57,9.57,0,0,1-.2,16.53Z"/>
    </g>
    <g class="cls-eye-left cls-eye">
            <circle class="cls-white" cx="169.14" cy="28.8" r="9.6"/>
            <path class="cls-nostroke" d="M173.89,37.12a9.46,9.46,0,0,1,.2-16.53,9.57,9.57,0,0,1-.2,16.53Z"/>
    </g>
</svg>