<svg xmlns="http://www.w3.org/2000/svg" viewBox="0 0 361 241">
    <defs>
        <style>.cls-1{fill:gray;}.cls-1,.cls-2,.cls-3{stroke:#000;stroke-width:5px;}.cls-1,.cls-2{stroke-linecap:round;stroke-linejoin:round;}.cls-2,.cls-4{fill:none;}.cls-3{fill:#fff;}.cls-3,.cls-4{stroke-miterlimit:10;}.cls-4{stroke:#1d1d1b;}</style>
    </defs>
    <g id="Layer_2" data-name="Layer 2">
        <g id="Layer_1-2" data-name="Layer 1">
            <path class="cls-1" d="M204.46,110.74H156.54L164.35,98a12.8,12.8,0,0,1,10.93-6.12h10.44A12.85,12.85,0,0,1,196.66,98Z"/>
            <path class="cls-1" d="M251.15,226.33c-21.19,0-70.65-14.7-70.65-55.75,0,41-49.46,55.75-70.64,55.75-12.28,0-16.33-11.24-8.19-26.07l54.87-89.52h47.92l54.86,89.52C267.47,215.09,263.42,226.33,251.15,226.33Z"/>
            <line class="cls-2" x1="164.74" y1="97.37" x2="146.23" y2="80.23"/>
            <path class="cls-2" d="M171.72,92.21c9-16.14,2.72-36.44-10-49.09-8.41-8.37-14.84-19.75-14.13-28.45"/>
            <line class="cls-2" x1="196.26" y1="97.37" x2="214.77" y2="80.23"/>
            <path class="cls-2" d="M189.28,92.21c-9-16.14-2.72-36.44,10-49.09,8.41-8.37,14.84-19.75,14.13-28.45"/>
            <line class="cls-2" x1="180.5" y1="170.58" x2="180.5" y2="110.96"/>
            <circle class="cls-3" cx="195.32" cy="92.15" r="9.6"/>
            <path d="M200.06,100.47a9.46,9.46,0,0,1,.21-16.53,9.56,9.56,0,0,1-.21,16.53Z"/>
            <circle class="cls-3" cx="166.26" cy="92.09" r="9.6"/>
            <path d="M171,100.41a9.46,9.46,0,0,1,.2-16.53,9.57,9.57,0,0,1-.2,16.53Z"/>
            <rect class="cls-4" x="0.5" y="0.5" width="360" height="240"/>
        </g>
    </g>
</svg>