<svg xmlns="http://www.w3.org/2000/svg" viewBox="0 0 361 241">
    <g id="Layer_2" data-name="Layer 2">
        <g id="Layer_1-2" data-name="Layer 1">
            <path class="cls-nofill" d="M191.85,110.83c12-5.39,15.41-14,27-19.31C232.71,85.09,237.2,78.15,240.2,70"/>
            <path class="cls-nofill" d="M194.22,70c5.13-11.61,19.87-16.58,25.36-42.31"/>
            <polyline class="cls-nofill" points="188.39 128.71 213.98 132.59 235.01 145.18 250.5 147.42"/>
            <path class="cls-nofill" d="M188.39,137.29c12.79,6,24.55,25.87,28.7,54.45l10.17,21.57"/>
            <path class="cls-myrer" d="M180.5,145.18h0a19.23,19.23,0,0,0-19.23,19.23v11.06A19.23,19.23,0,0,0,180.5,194.7h0a19.23,19.23,0,0,0,19.23-19.23V164.41a19.23,19.23,0,0,0-19.23-19.23h0"/>
            <path class="cls-myrer" d="M180.5,145.18h0a7.89,7.89,0,0,1-7.89-7.89V123.92a3.92,3.92,0,0,1,3.92-3.92h7.94a3.92,3.92,0,0,1,3.92,3.92v13.37a7.89,7.89,0,0,1-7.89,7.89Z"/>
            <path class="cls-myrer" d="M177.56,120a8.41,8.41,0,0,1-8.41-8.41v-3a5.78,5.78,0,0,1,5.78-5.78h11.14a5.78,5.78,0,0,1,5.78,5.78v3a8.41,8.41,0,0,1-8.41,8.41Z"/>
            <path class="cls-myrer" d="M173.55,102.84a9.69,9.69,0,0,1-9.67-10.42l1.25-16.54A15.41,15.41,0,0,1,180.5,61.62h0a15.41,15.41,0,0,1,15.37,14.26l1.25,16.54a9.69,9.69,0,0,1-9.67,10.42Z"/>
            <path class="cls-nofill" d="M169.15,110.83c-10.79-4.84-15.41-14-27-19.31C128.29,85.09,123.8,78.15,120.8,70"/>
            <path class="cls-nofill" d="M166.78,70c-5.13-11.61-19.87-16.58-25.36-42.31"/>
            <polyline class="cls-nofill" points="172.61 128.71 147.02 132.59 125.99 145.18 110.5 147.42"/>
            <path class="cls-nofill" d="M172.61,137.29c-12.79,6-24.55,25.87-28.7,54.45l-10.17,21.57"/>
    <g class="cls-eye-left cls-eye">
            <circle class="cls-white" cx="192.78" cy="67.08" r="9.6"/>
            <path class="cls-nostroke" d="M197.53,75.41a9.46,9.46,0,0,1,.2-16.53,9.57,9.57,0,0,1-.2,16.53Z"/>
    </g>
    <g class="cls-eye-left cls-eye">
            <circle class="cls-white" cx="168.85" cy="67.08" r="9.6"/>
            <path class="cls-nostroke" d="M173.6,75.41a9.46,9.46,0,0,1,.2-16.53,9.57,9.57,0,0,1-.2,16.53Z"/>
        </g>
</svg>