<svg xmlns="http://www.w3.org/2000/svg" viewBox="0 0 361 241">
    <g id="Layer_2" data-name="Layer 2">
        <g id="Layer_1-2" data-name="Layer 1">
            <path class="cls-natsvaermere" d="M180.45,122.08c-12.89,0-23.33-10.37-23.33-32.21V77.36A23.33,23.33,0,0,1,180.45,54h0a23.33,23.33,0,0,1,23.33,23.33V89.87C203.78,111.71,193.34,122.08,180.45,122.08Z"/>
            <path class="cls-natsvaermere" d="M180.45,213.79c-10.33,0-19.09-29.29-19.09-66.06v-5c0-12.65,8.54-20.67,19.09-20.67h0c10.54,0,19.09,8,19.09,20.67v5C199.54,184.5,190.77,213.79,180.45,213.79Z"/>
            <path class="cls-nofill" d="M176.51,54c-19.39-46.8-44.74-18.12-67.42-18.12"/>
            <path class="cls-nofill" d="M184.39,54c19.39-46.8,44.73-18.12,67.42-18.12"/>
            <path class="cls-natsvaermere" d="M157.22,75.22,79.47,41.76a104,104,0,0,0-51.3-8h0a9.19,9.19,0,0,0-7,13.76L44.33,87.49A21,21,0,0,0,62.49,97.94h94.73Z"/>
            <circle class="cls-trans" cx="59.06" cy="61.29" r="12.68"/>
            <path class="cls-natsvaermere" d="M157.22,97.94l-.05,9.23a21.29,21.29,0,0,1-8.74,17.09L134,134.81A41.35,41.35,0,0,1,88.53,137l-20-11.83a10,10,0,0,1-1.3-16.3h0a47.25,47.25,0,0,1,30.2-10.91Z"/>
            <path class="cls-natsvaermere" d="M203.78,75.22l77.75-33.46a104,104,0,0,1,51.3-8h0a9.19,9.19,0,0,1,7.05,13.76L316.67,87.49a21,21,0,0,1-18.16,10.45H203.78Z"/>
            <circle class="cls-trans" cx="301.94" cy="61.29" r="12.68"/>
            <path class="cls-natsvaermere" d="M203.78,97.94l.05,9.23a21.29,21.29,0,0,0,8.74,17.09L227,134.81A41.35,41.35,0,0,0,272.47,137l20-11.83a10,10,0,0,0,1.3-16.3h0a47.25,47.25,0,0,0-30.2-10.91Z"/>
            <line class="cls-nofill" x1="161.68" y1="149.2" x2="199.21" y2="149.2"/>
            <line class="cls-nofill" x1="162.73" y1="163.19" x2="198.17" y2="163.19"/>
            <line class="cls-nofill" x1="163.55" y1="176.32" x2="197.35" y2="176.32"/>
    <g class="cls-eye-left cls-eye">
            <circle class="cls-white" cx="194.75" cy="58.83" r="9.6"/>
            <path class="cls-nostroke" d="M199.49,67.16a9.46,9.46,0,0,1,.21-16.53,9.56,9.56,0,0,1-.21,16.53Z"/>
    </g>
    <g class="cls-eye-left cls-eye">
            <circle class="cls-white" cx="166.15" cy="58.83" r="9.6"/>
            <path class="cls-nostroke" d="M170.89,67.16a9.46,9.46,0,0,1,.21-16.53,9.57,9.57,0,0,1-.21,16.53Z"/>
        </g>
</svg>