<svg xmlns="http://www.w3.org/2000/svg" viewBox="0 0 361 241">
    <g id="Layer_2" data-name="Layer 2">
        <g id="Layer_1-2" data-name="Layer 1">
            <path class="cls-sommerfugle" d="M170.41,141.5c0,22.81,4.52,41.3,10.09,41.3s10.09-18.49,10.09-41.3V111.06A10.09,10.09,0,0,0,180.5,101h0a10.09,10.09,0,0,0-10.09,10.09Z"/>
            <path class="cls-nofill" d="M177.08,101.58c0-74.55-23-96.88-38.45-93.41"/>
            <path class="cls-sommerfugle" d="M169.45,132H80.36c-18.57,0-29.52-10.07-33.62-30.68l-10-64.09C34.93,17.42,47,9.69,63.44,9.69h0c41.3,0,106,62.42,106,115.86Z"/>
            <path class="cls-sommerfugle" d="M98.09,233.17h0c-14.76,0-27.74-12.39-24.92-26.23l8.21-45.45C84.78,144.16,95,132,114.62,132h54.83v13C169.45,188.66,125,233.17,98.09,233.17Z"/>
            <path class="cls-nofill" d="M183.92,101.58c0-74.55,23-96.88,38.45-93.41"/>
            <path class="cls-sommerfugle" d="M191.55,132h89.09c18.57,0,29.52-10.07,33.62-30.68l9.95-64.09C326.07,17.42,314,9.69,297.56,9.69h0c-41.3,0-106,62.42-106,115.86Z"/>
            <path class="cls-sommerfugle" d="M262.91,233.17h0c14.76,0,27.74-12.39,24.92-26.23l-8.21-45.45C276.22,144.16,266,132,246.38,132H191.55v13C191.55,188.66,236,233.17,262.91,233.17Z"/>
            <ellipse class="cls-trans" cx="109.79" cy="163.68" rx="18.43" ry="14.42" transform="translate(-76.73 227.37) rotate(-75)"/>
            <ellipse class="cls-trans" cx="251.21" cy="163.68" rx="14.42" ry="18.43" transform="translate(-33.8 70.6) rotate(-15)"/>
    <g class="cls-eye-left cls-eye">
            <circle class="cls-white" cx="170.9" cy="102.86" r="9.6"/>
            <path class="cls-nostroke" d="M175.65,111.18a9.46,9.46,0,0,1,.2-16.53,9.57,9.57,0,0,1-.2,16.53Z"/>
    </g>
    <g class="cls-eye-left cls-eye">
            <circle class="cls-white" cx="190.1" cy="102.86" r="9.6"/>
            <path class="cls-nostroke" d="M194.84,111.18a9.47,9.47,0,0,1,.2-16.53,9.57,9.57,0,0,1-.2,16.53Z"/>
        </g>
</svg>