<svg xmlns="http://www.w3.org/2000/svg" viewBox="0 0 361 241">
    <g id="Layer_2" data-name="Layer 2">
        <g id="Layer_1-2" data-name="Layer 1">
            <path class="cls-nofill" d="M173.74,98.09C154.45,56.44,125.27,26.71,88.91,5.63"/>
            <path class="cls-nofill" d="M187.26,98.09c19.29-41.65,48.47-71.38,84.83-92.46"/>
            <path class="cls-taeger" d="M178.5,97.64h4a12.88,12.88,0,0,1,12.88,12.88v5.24a0,0,0,0,1,0,0H165.62a0,0,0,0,1,0,0v-5.24A12.88,12.88,0,0,1,178.5,97.64Z"/>
            <line class="cls-nofill" x1="159.02" y1="117.29" x2="132.07" y2="87.36"/>
            <path class="cls-nofill" d="M155.47,165.4,147.35,163c-5.41,9.2-7.21,25.8-4.15,41.67l-14.79,16.42"/>
            <path class="cls-nofill" d="M154,138.7c-8.44,0-14.17,1.61-19.25,6.83l-7,7.22H101.53"/>
            <path class="cls-taeger" d="M165.62,97.64h29.76a0,0,0,0,1,0,0v5.24a12.88,12.88,0,0,1-12.88,12.88h-4a12.88,12.88,0,0,1-12.88-12.88V97.64A0,0,0,0,1,165.62,97.64Z" transform="translate(361 213.41) rotate(180)"/>
            <path class="cls-taeger" d="M180.5,115.77h16.29c5.81,0,10.36,5.17,10.36,11.23,0,32-2.28,79.85-23.64,105.09a3.94,3.94,0,0,1-6,0C156.13,206.85,153.85,159,153.85,127c0-6.06,4.55-11.23,10.36-11.23H180.5"/>
            <line class="cls-nofill" x1="201.98" y1="117.29" x2="228.93" y2="87.36"/>
            <path class="cls-nofill" d="M205.53,165.4l8.12-2.37c5.41,9.2,7.21,25.8,4.15,41.67l14.79,16.42"/>
            <path class="cls-nofill" d="M207,138.7c8.44,0,14.17,1.61,19.25,6.83l7,7.22h26.23"/>
            <line class="cls-nofill" x1="180.5" y1="116.09" x2="180.5" y2="232.67"/>
    <g class="cls-eye-left cls-eye">
            <circle class="cls-white" cx="192.47" cy="98.09" r="9.6"/>
            <path class="cls-nostroke" d="M197.21,106.41a9.46,9.46,0,0,1,.2-16.53,9.57,9.57,0,0,1-.2,16.53Z"/>
    </g>
    <g class="cls-eye-left cls-eye">
            <circle class="cls-white" cx="168.53" cy="98.09" r="9.6"/>
            <path class="cls-nostroke" d="M173.28,106.41a9.46,9.46,0,0,1,.2-16.53,9.57,9.57,0,0,1-.2,16.53Z"/>
        </g>
</svg>