<?xml version="1.0" encoding="UTF-8"?>
<svg id="Layer_2" xmlns="http://www.w3.org/2000/svg" viewBox="0 0 347.29 335.41">
    <defs>
        <clipPath id="mask5">
            <path class="cls-1" d="M347.29,108.83l-53.66-11.33c2.79-9.84,3.83-20.91,2.64-32.47-3.74-36.54-28.16-63.96-54.55-61.26-15.97,1.63-29,13.94-35.97,31.5l-6.67-25.52-61.4,16.05C131.18,11.04,119.68,.94,105.99,.06c-22.59-1.45-42.53,22.72-44.54,54-.32,4.96-.16,9.79,.4,14.43l-26.03,1.44c-1.83,71.93-10.25,140.88-35.82,202.07l50.79,24.32c8.86-17.91,16.26-35.84,22.36-53.78l9.29,90.8,58.57-5.99-2.76-26.96c9.27,8.98,21.89,14.52,35.82,14.52s25.63-5.14,34.8-13.55l8.9,34.04,62.22-16.27-6.3-24.11,32.85,6.93,40.77-193.13Z"/>
        </clipPath>
    </defs>
</svg>