<?xml version="1.0" encoding="UTF-8"?>
<svg id="Layer_2" xmlns="http://www.w3.org/2000/svg" viewBox="0 0 365.65 379.78">
    <defs>
        <clipPath id="mask3">
            <path class="cls-1" d="M329.5,142.42c-11.14,4.96-21.76,10.12-31.86,15.57,.43-6.78-.43-13.64-2.74-20.31-2.95-8.54-7.97-15.86-14.41-21.71l29.89-74.25L218.84,4.86l-13.68,33.99C190.06,9.79,163.1-6.33,142.07,2.34c-16.47,6.8-24.79,26.96-22.91,50.4-17.05-15.67-37.6-30.2-62.29-43.92L26.98,61.51c18.1,12.34,34.26,25.5,48.36,39.53L4.87,106.64l6.88,86.62,26.34-2.09C2.43,220.83-10.51,264.13,9.25,288.31c12.08,14.79,33.6,19.02,56.78,13.45l32.64,56.53,62.4-36.03c-4.2,13.37-7.85,27.62-10.97,42.85l68.41,14.66c14.84-87.64,72.89-143.6,147.15-175.33l-36.15-62.02Z"/>
        </clipPath>
    </defs>
</svg>