<?xml version="1.0" encoding="UTF-8"?>
<svg id="Layer_2" xmlns="http://www.w3.org/2000/svg" viewBox="0 0 313.51 388.07">
    <defs>
        <clipPath id="mask4">
            <path class="cls-1" d="M313.13,305.54c-1.82-17.8-10.06-33.46-22.3-45.12l-10.77-70.34-15.54,2.38c6.48-11.38,9.59-24.64,8.18-38.45-2.62-25.64-20.16-46.29-43.59-54.99,22.7-6.07,46.36-15.18,71.46-27.59l-30.45-62.99C191.86,50.56,112.04,39.11,41.39,0L14.65,66.62c11.4,6.1,22.62,11.58,33.74,16.41C15.88,96.54-3.5,125,4.55,149.01c4.59,13.69,17.18,23.16,33.47,27.14l-7.81,36.99,46,9.71L0,238.5l21.65,105.45,24.98-5.13c-3.41,8.37-6.66,17.1-9.75,26.24l66.07,23.01c4.43-14.75,10.03-28.4,16.67-41l43.03-6.59c12.13,30.67,44.66,50.83,80.5,47.16,42.84-4.38,74.17-41.14,69.98-82.1Z"/>
        </clipPath>
    </defs>
</svg>