<?xml version="1.0" encoding="UTF-8"?>
<svg id="Layer_2" xmlns="http://www.w3.org/2000/svg" viewBox="0 0 337.35 381.59">
    <defs>
        <clipPath id="mask2">
            <path class="cls-1" d="M287.68,255.81l16.21-76.78-35.98-7.6,69.45-14.29-13.01-63.23-33.31,6.85c10.39-14.92,13.95-33.24,8.05-50.31-10.53-30.46-47.21-45.42-81.92-33.41-11.82,4.09-21.89,10.78-29.61,19.03L178.68,2.98,92.66,26.06C80.54,17.02,67.04,8.36,51.99,0L22.11,52.69c15.78,10.76,30.09,22.15,42.85,34.2l-17.26,81.77L0,172.45l6.88,86.62,71.11-5.65,5.42,47.24c-8.99-3.78-17.84-8.11-26.54-12.92l-23.16,57.69c75.22,40.23,141.6,49.72,226,14.07,1.17-.34,2.34-.71,3.51-1.12,5.85-2.02,11.26-4.7,16.18-7.87,.63-.31,1.26-.61,1.89-.92l-.12-.24c23.08-15.84,34.36-43.15,25.82-67.86-3.67-10.6-10.51-19.32-19.32-25.68Z"/>
        </clipPath>
    </defs>
</svg>