<?xml version="1.0" encoding="UTF-8"?>
<svg id="Layer_2" xmlns="http://www.w3.org/2000/svg" viewBox="0 0 345.9 349.28">
    <defs>
        <clipPath id="mask6">
            <path class="cls-1" d="M320.2,194.01c13.71-17.97,18.32-38.91,10.18-56.33-8.43-18.03-28.51-28-52.14-28.38l43.33-58.3-51.61-38.36-23.5,31.61c-1.37-14.7-7.5-27.46-18.46-35.6-24.99-18.57-65.72-6.26-92.09,27.38L89.55,1.58,0,122.06l66.05,49.09c-19.27,2.65-38.74,3.8-58.46,3.15l8.18,68.41c15.79,1.66,31.12,2.4,46.02,2.31l-34.89,46.94,51.61,38.36,16.68-22.44c4.86,21.77,18.46,38.16,36.6,40.98,19.08,2.97,37.93-9.89,49.01-30.98l75.55,26.2c19.53-48.98,49.13-89.34,89.55-120.48l-25.7-29.6Z"/>
        </clipPath>
    </defs>
</svg>