<?xml version="1.0" encoding="UTF-8"?><svg id="Layer_2" xmlns="http://www.w3.org/2000/svg" viewBox="0 0 358.61 350.47"><g id="Layer_1-2"><path class="cls-1" d="M358.61,179.41l-17.16-81.27-31.74,6.7c2.89-3.87,5.22-8.18,6.86-12.91,7.85-22.69-2.51-47.77-23.71-62.32l.11-.22c-.58-.29-1.16-.56-1.74-.85-4.52-2.91-9.49-5.37-14.86-7.23-1.07-.37-2.15-.71-3.23-1.03C195.63-12.44,134.66-3.73,65.57,33.22l21.27,52.98c11.65-6.45,23.62-11.95,35.83-16.33l-6.27,54.69-53.81-4.27-6.27,78.99C21.43,207.28-3.05,231.03,.31,255.21c3.26,23.5,31.7,39.45,66.11,38.68-3.73,2.77-7.57,5.49-11.5,8.18l27.45,48.4c13.82-7.68,26.22-15.64,37.35-23.94l79,21.2,8.95-33.35c5.8,4.58,12.54,8.35,20.07,10.95,31.88,11.03,65.56-2.71,75.24-30.69,6.74-19.49,.04-40.74-15.42-55.56l26.26,5.4,11.05-53.7-10.18-2.09,43.93-9.27Z"/></g></svg>