<svg xmlns="http://www.w3.org/2000/svg" viewBox="0 0 152.89 116.53"><defs><style>.cls-1{fill:#fff;stroke:#000;stroke-miterlimit:10;}</style></defs><g id="Layer_2" data-name="Layer 2"><g id="Layer_1-2" data-name="Layer 1"><path class="cls-1" d="M63.54,75.91v9.53h81.11a7.75,7.75,0,0,0,7.74-7.75V68.16a7.75,7.75,0,0,1-7.74,7.75Z"/><path class="cls-1" d="M.5,53.5a3.83,3.83,0,0,0,1.2,2.79l2.08,2,49,46.47a6.36,6.36,0,0,0,10.73-4.62V75.91h81.11a7.75,7.75,0,0,0,7.74-7.75V38.84a7.74,7.74,0,0,0-7.74-7.74H63.54V6.88A6.36,6.36,0,0,0,52.81,2.26L1.7,50.71A3.83,3.83,0,0,0,.5,53.5Z"/><path class="cls-1" d="M.5,53.5V63a3.85,3.85,0,0,0,1.2,2.8l51.11,48.45a6.36,6.36,0,0,0,10.73-4.62v-9.54a6.36,6.36,0,0,1-10.73,4.62l-49-46.47-2.08-2A3.83,3.83,0,0,1,.5,53.5Z"/></g></g></svg>