<?xml version="1.0" encoding="UTF-8"?><svg id="Layer_2" xmlns="http://www.w3.org/2000/svg" xmlns:xlink="http://www.w3.org/1999/xlink" viewBox="0 0 348 215"><defs><style>.cls-1{stroke:#000;stroke-linecap:round;stroke-linejoin:round;opacity:0.2}.cls-1,.cls-2{fill:none;}.cls-3{clip-path:url(#clippath);}</style><clipPath id="clippath"><rect class="cls-2" width="348" height="215"/></clipPath></defs><g id="Layer_1-2">
<g class="cls-3"><g><g><path class="cls-1" d="M188.39,0c2.35,2.02,3.18,3.04,3.18,5.51-.03,30.74,.02,61.48-.06,92.22-.01,4.28,.89,8.12,4.08,11,8.44,7.6,11.23,16.94,10.14,28.11-.71,7.28-.16,14.69-.13,22.04,.02,4.36,2.62,7.19,6.51,7.54,4.92,.44,8.44-3.41,8.48-7.04,.13-13.7,.25-27.4-.13-41.09-.07-2.54-1.97-5.58-3.93-7.42-5.52-5.18-7.49-11.11-7.06-18.66,.58-10.33,.13-20.71,.15-31.07,.01-6.01,2.88-9.02,8.52-9.02s8.51,3.01,8.52,9.02c.02,12.03,.1,24.06-.04,36.08-.06,4.58,1.3,8.49,4.06,12.03,4.18,5.35,8.29,10.75,12.56,16.02,2.53,3.12,3.92,6.47,3.52,10.55-.2,1.99-.21,4.02,0,6.01,1.04,9.84-1.83,17.13-11.47,21.76-5.53,2.65-8.06,8.2-7.7,14.84,.36,6.5,.11,13.03,.07,19.54-.04,5.81-3.4,9.52-8.51,9.52-5.79,0-8.52-3.05-8.52-9.52,0-1.17,0-2.34,0-3.51,0-10.91-.6-11.62-11.03-16.05-7.84-3.34-10.64-7.46-10.56-14.02,.1-8.18-.36-16.4,.14-24.55,.44-7.19-1.42-13.26-6.68-18-5.64-5.08-7.21-11.15-7.11-18.6,.35-25.89,.07-51.79,.2-77.68,.02-4.35-2.03-7.17-5.63-8.38-3.27-1.1-6.38,.62-8.41,3.42-.75,1.03-.99,2.62-1.02,3.96-.12,4.51-.12,9.02-.02,13.53,.09,3.86-1.14,6.88-4.51,9.06-2.8,1.81-5.17,4.36-8.1,5.88-3.75,1.94-4.53,4.82-4.5,8.62,.1,15.54,.02,31.07,.05,46.61,.01,7.37-2.46,13.55-8,18.57-4.98,4.51-7.11,10.26-7.08,17.01,.09,23.89,.04,47.27,.04,71.16"/><path class="cls-1" d="M307.88,0c0,5.88-5.65,10.02-9.12,13.95-4.58,5.2-5.39,11.24-5.41,17.62-.05,25.06,0,50.12-.03,75.18,0,5.59-.12,11.27-4.54,15.5-3.33,3.19-6.84,6.25-10.54,8.99-2.81,2.07-7.72-.04-7.29-3.42,1.66-12.95-7.94-20.3-13.69-29.61-2.71-4.39-5.13-8.96-7.5-13.54-.68-1.32-1-2.98-1.01-4.48-.09-9.52,0-19.04-.06-28.57-.03-6.35-1.8-12.14-6-17.04-3.01-3.51-5.79-7.25-9.08-10.47-4.5-4.41-10.06-6.55-16.49-6.08-3.75,.27-6.36-1.69-7.42-5.03-.82-2.61,.07-5.18,2.92-6.46,.76-.34,1.66-.5,2.5-.5,5.01-.05,10.03-.11,15.04,.01,2.86,.07,5.57,1.15,5.44,4.47-.34,8.99,4.68,14.27,12.15,17.44,6.59,2.8,8.4,7.33,8.11,14.14-.48,11.34-.15,22.71-.12,34.07,.01,7.31,2.65,10.18,10.02,11.03,4.71,.54,8.73,5.19,9.01,10.53,.11,2.17-.1,4.35,.05,6.51,.25,3.67,2.87,5.82,5.99,5.82s5.7-2.15,6-5.82c.11-1.33,.02-2.67,.02-4.01,0-24.39,.1-48.78-.06-73.17,0-13.83,8.09-18.37,8.09-27.06"/><path class="cls-1" d="M148.42,0c3.82,3.67,5.65,8.51,3.5,14.53-1.05,2.93-2.45,5.32-5.43,7.14-6.75,4.13-13.1,8.92-19.64,13.4-4.61,3.15-6.65,7.34-6.59,13.04,.2,18.21-.09,36.42,.18,54.63,.08,5.29-1.77,9.02-6.15,11.48-4.64,2.61-6.03,6.59-6.02,11.57,.06,17.54,.03,35.08,.02,52.62,0,5.85-3.35,10.02-8.02,10.02-4.15,0-8.01-4.79-8.02-10.02-.01-11.69,0-23.39,0-35.08,0-5.08-2.1-7.92-7.01-10.05-3.56-1.55-7.01-3.36-10.55-4.98-3.9-1.78-5.53-4.87-5.52-9.03,.02-13.36,.07-26.73-.02-40.09-.03-5.3,2.7-9.29,7.11-10.84,8.12-2.87,10.3-8.45,10.02-16.22-.26-7.09,2.12-10.7,7.47-12,6.76-1.65,12.93,1.59,13.35,11.01,.67,15.01,.3,30.06,.07,45.1-.04,2.69-.94,5.81-2.53,7.92-2.72,3.6-3.45,7.31-3.43,11.63,.12,20.88,.05,41.76,.05,62.65"/><path class="cls-1" d="M170.48,0c2.45,3.48,4.72,6.06,7.02,9.28,2.36,3.3,3.13,6.64,3.1,11.27-.18,27.06,.09,54.13-.22,81.19-.07,6.47,1.9,11.35,6.01,16.15,2.78,3.24,6.89,5.87,7.19,10.91,.1,1.68,.91,3.34,.92,5.01,.09,10.02,.04,20.05,.05,30.07,0,5.84,.92,7.11,6.51,9.54,2.88,1.25,5.67,2.7,8.54,3.98,4.36,1.96,5.84,5.64,5.99,10.03,.12,3.67,.02,7.35,.03,11.03,0,1.84-.41,4.13,2.5,3.96,2.63-.16,3.47-2.32,3.46-4.46-.03-7.35-.56-14.71-.32-22.05,.11-3.36,.89-7.07,2.56-9.93,1.9-3.28,2.91-6.4,2.88-10.12-.1-12.19-.19-24.39,.04-36.58,.08-4.11-.59-7.72-3.62-10.49-4.21-3.86-5.05-8.72-5.01-14.07,.08-11.19,.03-22.39,.03-33.58"/><path class="cls-1" d="M134.47,215c-.49-2.14-1.03-4.34-1.04-6.51-.08-19.04,.11-38.09-.11-57.13-.1-8.51,2.07-15.7,8.54-21.61,4.86-4.45,6.72-10.31,6.63-16.98-.18-14.03-.09-28.07-.04-42.1,.02-6.63,3.92-10.64,10.01-10.52,5.35,.1,9.02,4.38,9.02,10.52,0,14.03,.08,28.07-.05,42.1-.04,3.76,.62,6.82,3.49,9.6,2.71,2.63,4.61,6.07,7.15,8.9,2.01,2.25,2.52,4.69,2.5,7.56-.09,9.86-.04,19.71-.03,29.57,0,8.09,2.2,11,10.02,14.06,9.94,3.88,12.46,6.08,12.05,17.52-.03,.83-.05,.87,0,1.7,.4,6.66,6.78,12.52,13.03,12.52h9.03c5.74,0,10.55-2.66,11.85-9.05,1.21-6,1.34-11.54,1.08-17.69-.4-9.4,2.5-16.53,11.12-21.1,5.87-3.12,8.65-8.05,8.14-14.99-.43-5.82-.28-11.7-.02-17.53,.18-4.08-1.1-7.37-3.54-10.56-5.81-7.59-11.43-15.32-17.06-23.04-1.01-1.38-2.31-2.94-2.43-4.5-.57-7.5-.91-15.02-1.07-22.55-.17-8.18,0-16.37-.08-24.56,0-1.01-.45-2.11-.99-2.99-3.75-6.19-8.98-9.18-16.53-8.65-7.62,.54-14.52,7-14.53,14.64-.02,14.37,.3,28.74-.13,43.1-.23,7.45,.97,13.67,7.08,18.63,3.6,2.92,4.71,7.15,4.67,11.95-.11,11.69,.24,23.39,.41,35.08"/><path class="cls-1" d="M198.53,0c2.68,3.71,3.2,14.45,4.2,21.03,.91,5.97,5.65,9.32,11.88,8.97,8.93-.5,16.46,2.05,22.01,9.14,2.67,3.41,4.16,7.45,4.1,11.98-.11,9.02,.18,18.05-.1,27.06-.23,7.57,2.36,14.08,6.62,20.02,3.33,4.64,6.81,9.2,10.54,13.52,4.42,5.12,6.55,10.75,6.1,17.59-.16,2.45,.68,5.33,1.98,7.44,2.63,4.25,9.54,4.93,13.9,1.54,6.28-4.88,12.45-9.92,18.56-15.03,3.53-2.95,4.56-7.02,4.55-11.5-.03-25.39,.15-50.79-.12-76.18-.08-7.5,2.05-13.57,7.61-18.56,4.74-4.26,6.53-10.45,6.53-17.02"/><path class="cls-1" d="M80.25,215c-5.76-5.94-12.23-11.28-12.92-20.05-.91-11.65-1.22-23.38-1.01-35.07,.15-8.47-8.3-20.23-20.69-20.59-3.68-.11-7.78,.28-10.93-1.18-5.01-2.32-7.26-7.29-7.59-12.82-.19-3.16-.24-6.36,.01-9.52,.45-5.65-.4-10.56-5.52-14.09-2.99-2.07-4.08-5.22-3.6-8.97,.29-2.3,.18-4.68,.02-7.01-.2-3.07-1.24-5.58-4.98-5.51-3.73,.07-4.23,2.43-4.05,5.51,.18,3,.28,6.04-.02,9.01-.52,5.15,.53,9.5,5.07,12.54,2.92,1.95,3.05,4.86,3.05,8.02-.06,30.57-.07,61.14,.03,91.72,0,2.51,.48,5.57,1.21,8.01"/><path class="cls-1" d="M66.54,0c2.8,2.61,6.42,6.59,8.73,8.97,5.65,5.82,7.83,12.58,7.04,20.6-.39,3.97-.43,8.05,0,12.01,.86,7.79-2.55,13.11-9.13,16.5-7.5,3.87-9.93,10.28-9.99,18.09-.04,5.01,0,10.02,0,15.04,0,9.39-7.62,16.72-17.04,17.13-7.87,.34-18.69-7.8-18.11-17.13,.19-2.99,.07-6.08-.52-9-1.24-6.08-6.94-7.06-11.49-8.96-7.86-3.27-8.99-4.5-8.99-12.61,0-9.02,.12-18.04,.06-27.06-.06-11.08-2.29-16.32-7.08-18.97"/><path class="cls-1" d="M327.93,0c0,3.84,.73,8.87-.19,12.48-1.12,4.43-3.49,8.46-7.27,11.65-5.46,4.6-7.44,11.09-7.52,17.97-.19,16.04,.06,32.08-.12,48.11-.08,6.73,1.9,12.11,7.56,16.06,6.46,4.51,8.17,10.78,5.42,17.97-.94,2.45-2.86,4.87-4.97,6.47-6.67,5.08-13.47,10.04-20.55,14.52-4.17,2.65-5.49,6.07-5.47,10.62,.05,19.88,.02,39.25,.02,59.13"/><path class="cls-1" d="M161.46,0c-2.41,3.52-4.95,9.48-4.95,24.05,0,7.35-1.31,12.69-8.41,17.32-14.02,9.16-14.43,7.51-14.28,26.78,.1,13.2-.25,26.4-.47,39.59-.08,4.77-2,8.93-5.54,11.98-6.71,5.78-8.77,12.87-8.62,21.61,.42,24.72,.15,48.94,.15,73.66"/><path class="cls-1" d="M322.92,0c0,10.23-2.02,16.72-8.48,22.6-4.77,4.34-6.61,10.05-6.59,16.49,.07,20.21,.07,40.43-.01,60.64-.02,4.43,1.38,7.82,5.01,10.57,7.08,5.36,7.04,11.82,.02,16.97-6.95,5.1-13.95,10.16-21.08,15-3.34,2.27-4.87,5.47-4.9,9.07-.17,19.54-.09,44.1-.06,63.64"/><path class="cls-1" d="M1,0c0,6.22,6.51,11.5,10.13,16.46,2.63,3.6,4.04,7.16,3.96,11.61-.17,8.85,.12,17.71-.09,26.56-.24,10.17,.48,10.25,10.12,14.42,9.71,4.21,10.98,5.36,10.98,15.65,0,1.84-.05,3.68,0,5.51,.15,5.18,3.19,8.02,8.52,8.02,4.7,0,8.45-3.44,8.5-8.02,.08-6.85,.24-13.71-.04-20.55-.28-7.05,2.5-12.1,8.56-15.57,1.96-1.12,3.73-2.59,5.53-3.99,3.1-2.4,5.03-5.39,5.05-9.51,.03-4.85,.35-9.69,.46-14.53,.16-7.03-5.09-11.35-8.57-16.5C62.08,6.52,58.43,2.03,56.16,0"/><path class="cls-1" d="M48.14,0c1.85,2.95,4.05,6.19,4.05,13.57,0,13.53,.07,21.51-.13,35.04-.04,2.51-.62,5.48-2.06,7.41-2.36,3.17-2.97,6.4-2.9,10.13,.13,7.35,.03,14.7,.04,22.05,0,2.5-.14,5.06-3.51,4.96-3.55-.1-2.39-2.99-2.48-4.96-.12-2.83-.27-5.7,.02-8.51,.63-6.17-2.19-10.49-7.58-12.52-10.71-4.03-13.53-5.78-13.53-20.06,0-7.68-.17-15.37,.07-23.05,.12-3.95-1.25-7.05-3.55-10.05C13.3,9.75,6.02,4.79,6.02,0"/><path class="cls-1" d="M0,30.97c.74,2.61,1.91,10.82,1.91,20.16,0,16.87,.14,33.74,.05,50.62-.02,3.61,.65,6.57,4.04,8.55,4.76,2.78,6.2,6.93,6.15,12.5-.25,29.9-.04,62.31,0,92.21"/><path class="cls-1" d="M178.71,0c4.24,3.2,8.05,7.2,7.96,14.54-.33,29.06-.1,58.14-.18,87.2,0,3.72,.66,6.87,3.49,9.58,2.13,2.04,3.54,4.81,5.62,6.91,3.26,3.28,4.16,7.06,4.04,11.57-.25,9.01-.07,18.04-.07,27.06s2.22,11.89,11.02,14.56c.55,.17,1.01,.65,1.51,.98"/><path class="cls-1" d="M286.84,0c0,8.5-4.08,6.62-4.08,15.04,.11,18.04,.12,36.09-.04,54.13-.02,2.34-.58,5.35-2.09,6.84-1.77,1.75-4.92,3.14-7.33,2.96-3.66-.28-6.5-4.78-6.52-8.8-.06-10.69-.02-21.38-.02-32.08,0-10.03-1.75-12.57-11.03-16.04-1.69-.63-3.35-1.31-5.01-2-5.15-2.13-7.68-5.79-7.07-11.53,.26-2.48,.04-6.01,.04-8.52"/><path class="cls-1" d="M66.54,215c-4.25-4.13-7.35-8.05-7.36-13.02-.03-12.53,.08-25.06-.05-37.59-.07-7.31-2.59-13.82-9.54-16.93-11.75-5.25-23.61,2.95-23.54,14.42,.1,16.04,.06,25.4,.06,41.44,0,4.85,2.04,7.52,4.81,11.68"/><path class="cls-1" d="M148.42,215c-4.93-4.17-8.4-9.97-8.4-14.58,0-10.69-.86-33.87-1.26-44.55-.33-8.98,1.14-16.73,8.08-23.14,4.47-4.14,6.83-9.46,6.68-15.96-.29-12.52-.12-25.06-.04-37.59,.01-1.67,.15-3.73,1.11-4.89,.77-.94,3.48-1.56,4.23-.96,1.32,1.07,2.51,3.16,2.53,4.84,.2,13.03,.16,26.06,.09,39.09-.03,5.47,1.5,10.33,5.58,13.99,7.08,6.36,9.6,14.32,9.54,23.59-.15,20.21-.05,35.89-.05,56.1,0,1.53,.77,3.21,2.2,4.03"/><path class="cls-1" d="M277.79,215c2.47-2.12,3.08-4.83,3.06-8.01-.1-15.7-.04-31.41-.05-47.11,0-6.49-4.39-11.53-10.03-11.53s-10.32,5.06-9.95,11.52c.47,8.23-1.8,14.32-10.06,17.65-5,2.02-7.3,6.23-7.13,11.93,.26,8.68,.07,16.86,.07,25.55"/><path class="cls-1" d="M100.37,215c-.17-2.66-.03-5.84-.1-8.51-.12-4.85-3.84-9.74-8.52-9.91-8.25-.3-10.02-4.67-10.02-12.15,0-10.36-.4-20.74,.13-31.07,.41-8.07-1.82-13.94-9.65-17.06-7.45-2.96-10.51-8.99-10.98-16.53-.21-3.45-1.91-4.58-5.07-4.53-4.68,.07-9.36,0-14.04,.02-4.68,.01-6.73,1.49-7.02,5.01-.29,3.48,2.34,6.87,6.52,6.92,18.61,.21,25.88,13.27,32.04,27.68,.51,1.19,.52,2.65,.52,3.99,.04,8.69,.52,17.41-.12,26.05-.65,8.83,3.82,15.34,8.19,22.04,1.82,2.79,3.94,5.43,6.03,8.03"/><path class="cls-1" d="M348,118.37c-3.7-3.95-.65-11.32-7.19-14.23-3.5,.74-5.1,2.87-4.88,6.62,.32,5.27,.06,10.11-3.74,14.74-1.92,2.34-1.83,6.85-1.63,10.31,.38,6.58-1.86,11.34-7.63,14.57-2.95,1.65-5.69,3.65-8.54,5.48-4.77,3.05-6.51,7.61-6.51,13.03,0,15.54,0,30.57,0,46.1"/><path class="cls-1" d="M18.32,0c1.19,4.21,12.85,5.1,12.85,18.55,0,10.18-.09,20.38-.08,30.57,0,4.92,2.72,8,7.02,8.02,4.69,.02,7.97-3.15,8-8.02,.07-13.03-.03-19.68-.03-32.71C46.08,8.62,42.89,3.38,41.23,0"/><path class="cls-1" d="M56.16,215c-2.52-2.51-3.76-4.98-3.88-8.02-.37-9.68-.14-19.37-.14-29.06,0-2.51,.01-5.01,0-7.52-.03-6.01-2.88-9.02-8.52-9.02s-8.49,3.08-8.51,9.02c-.04,12.53-.02,15.84-.02,28.37,0,5.64,2.29,9.69,6.14,16.23"/><path class="cls-1" d="M134.47,0c5.22,13.37,3.94,19.21-.21,21.84-6.26,3.96-8.85,5.47-14.94,9.71-5.13,3.58-7.2,8.24-7.1,14.56,.28,17.04,.08,34.08,.12,51.12,0,1.67,.31,3.34,.48,5.01"/><path class="cls-1" d="M348,129.3c-.8-2.41-5.44-4.2-7.99-2.92-2.71,1.36-5.3,3.06-5.11,6.94,.23,4.67-.08,9.36,.1,14.03,.13,3.64-1.15,6.42-4.05,8.52-3.01,2.18-5.91,4.52-9.05,6.47-3.85,2.38-5.01,5.84-5,10.07,.04,14.37,.01,28.23,.01,42.59"/><path class="cls-1" d="M341.97,215c0-12.03,.05-23.55-.02-35.58-.03-4.91-3.41-9.27-7.5-10.02-4.66-.86-9.13,1.5-10.98,6.03-.49,1.2-.52,2.65-.53,3.99-.04,12.03-.02,23.55-.02,35.58"/><path class="cls-1" d="M0,118.37c3.61,3.2,6.05,8.53,6.04,13.44-.04,27.9-.02,55.29-.02,83.19"/><path class="cls-1" d="M0,129.3c.81,2.16,.95,5.68,.96,9.52,.09,25.56,.04,50.61,.04,76.17"/><path class="cls-1" d="M80.25,0c3.9,4.09,6.41,9.81,7.33,14.69,.85,4.49,1.23,10.35,5.13,13.94,2.63,2.42,7.28,4,10.99,1.32,7.49-5.42,12.6-9.27,19.49-15.44C126.33,11.68,128.37,6.12,128.37,0"/><path class="cls-1" d="M12.16,0c0,6.22,13.49,6.97,13.49,22.56,0,8.68-.08,17.37-.08,26.06,0,10.51,3.32,10.77,10.03,13.53,.83,.34,1.67,.67,2.51,1"/><path class="cls-1" d="M277.79,0c-1.94,1.97-2.46,4.18-2.48,6.17-.29,20.88,.48,42.25,.48,62.99"/><path class="cls-1" d="M124.35,113.77c-2.01,2.17-3.85,4.52-6.05,6.48-4.58,4.06-6.04,9.25-5.98,15.07,.15,15.2,.44,30.4,.46,45.61,.02,11.53-.3,22.55-.47,34.07"/><path class="cls-1" d="M268.76,215c0-6.85,.01-13.19,0-20.04-.01-5.72-2.5-8.52-7.52-8.52-4.49,0-7.43,3.22-7.5,8.52-.09,6.85-.02,13.19-.02,20.04"/><path class="cls-1" d="M198.53,215c-2.47-3.77-6.57-6.25-6.49-13.02,.03-2.67,.18-5.36-.05-8.01-.22-2.57-1.17-4.58-4.46-4.58s-4.34,2.01-4.45,4.57c-.21,4.84-.11,7.63-.11,12.42,.4,3.39,2.13,6.39,5.42,8.62"/><path class="cls-1" d="M30.92,0c2.77,4.44,7.23,6.29,7.23,16.54,0,11.53-.04,23.05-.04,34.58"/><path class="cls-1" d="M88.3,0c6.67,8.89,3.9,13.57,9.9,21.64,1.77,2.38,4.21,1.87,6.05,.35,3.83-3.15,7.41-6.62,11.08-9.97C118.58,9.05,119.34,5.72,119.34,0"/><path class="cls-1" d="M44.13,171.4c0,12.53,0,19.09,0,31.62,0,2.98,.89,7.42,4.01,11.98"/><path class="cls-1" d="M331.44,46.11c-.17,7.68-.43,15.37-.47,23.05-.02,4.68,.3,9.36,.47,14.03"/><path class="cls-1" d="M156.95,155.37v37.09"/><path class="cls-1" d="M327.93,215c0-8.85,.09-17.2-.05-26.05-.05-3.4,.39-6.26,3.97-7.41,3.28,1.4,4.23,3.94,4.16,7.41-.19,8.85-.06,17.2-.06,26.05"/><path class="cls-1" d="M253.72,0c0,2.22-.05,5.47,.58,7.49,1.44,4.65,4.53,6.38,8.95,5.54,3.36-.64,5.45-3.67,5.51-8.02,.02-1.34,0-3.68,0-5.01"/><path class="cls-1" d="M335.96,0c0,1.5,.16,4.03-.03,5.51-1.06,8.37,2.65,14.46,8.57,20.03,1.1,1.04,2.57,2.89,3.5,5.42"/><path class="cls-1" d="M341.97,0c-.14,5.18,.58,11.41,6.03,14.62"/><path class="cls-1" d="M161.46,215c2.01-3.28,7.02-3.41,9.03,0"/><path class="cls-1" d="M329.19,31.07c-6.54,1.97-10.07,8.38-9.87,16.04,.34,12.85,.06,25.72,.1,38.59,.02,6.95,2.98,11.69,8,13.55,8.58,3.19,16.39-4.3,16.5-12.05,.21-14.53,.32-29.07-.05-43.6-.2-7.73-8.15-14.5-14.69-12.53Z"/><path class="cls-1" d="M155.69,150.35c-2.85,.95-4.39,4.03-4.33,7.52,.18,11.19,.02,22.39,.11,33.58,.01,1.84,.06,4.16,1.11,5.39,1.19,1.39,4.18,2.97,5.23,2.39,2.13-1.18,4.85-3.71,4.93-5.78,.45-12.68,.35-25.39,.15-38.08-.07-4.24-4.35-5.96-7.2-5.01Z"/><path class="cls-1" d="M61.93,19.05c-2.71,0-3.95,3.04-3.82,6.02,.22,5.34,.14,10.69,.03,16.03-.06,2.94,.9,4.98,4.04,4.96,3.1-.02,4.1-2.03,4.04-4.96-.11-5.18-.21-10.37,.03-15.53,.15-3.31-1.62-6.52-4.33-6.52Z"/><path class="cls-1" d="M85.49,77.18c-4.26,.91-6.31,5.42-6.28,10.02,.05,8.69-.06,17.38,.04,26.06,.07,6.13,3.23,9.35,8.5,9.02,3.64-.22,6.45-2.85,6.48-6.52,.1-10.69,.12-21.38,0-32.07-.05-4.38-4.47-7.42-8.73-6.52Z"/><path class="cls-1" d="M330.19,41.1c-2.89,.55-4.37,3.64-4.33,7.02,.17,11.86,.05,23.72,.07,35.58,0,3.73,2.41,6.52,5.51,6.52s5.5-2.79,5.51-6.52c.02-12.03,.03-24.06,0-36.08-.01-4.79-3.87-7.07-6.76-6.52Z"/><path class="cls-1" d="M235.92,128.3c-2.9,.58-3.76,3.71-3.76,6.52,0,5.01,.02,10.02,0,15.04-.02,3.12,.98,5.52,4.52,5.46,3.47-.06,4.12-2.47,4.05-5.46-.12-5.01-.24-10.03,.03-15.03,.2-3.61-1.94-7.1-4.83-6.52Z"/><path class="cls-1" d="M154.44,140.33c-7.43,1.94-9.37,7.66-9.15,15.04,.42,13.69,.57,27.42-.07,41.08-.32,6.82,5.28,12.03,11.74,12.96,5.4,.77,12.33-5.75,12.44-11.95,.26-15.2,.31-30.41-.01-45.6-.15-7.2-7.52-13.47-14.94-11.53Z"/><path class="cls-1" d="M100.37,0c0,5.23,2.77,9.48,5.54,9.48C108.98,9.48,112.32,5.01,112.32,0"/></g><g><path class="cls-1" d="M128.33-71.16C128.42-47.27,128.37-23.89,128.37,0"/><path class="cls-1" d="M134.47,0c-.49-2.14-1.03-4.34-1.04-6.51-.08-19.04,.11-38.09-.11-57.13"/><path class="cls-1" d="M17.11-8.01C17.12-5.5,17.59-2.44,18.32,0"/><path class="cls-1" d="M80.25,0c-5.76-5.94-12.23-11.28-12.92-20.05-.91-11.65-1.22-23.38-1.01-35.07,.15-8.47-8.3-20.23-20.69-20.59-3.68-.11-7.78,.28-10.93-1.18"/><path class="cls-1" d="M300.29-69.76c-4.17,2.65-5.49,6.07-5.47,10.62C294.87-39.25,294.84-19.88,294.84,0"/><path class="cls-1" d="M119.19-73.66C119.61-48.95,119.34-24.72,119.34,0"/><path class="cls-1" d="M291.8-72.72c-3.34,2.27-4.87,5.47-4.9,9.07C286.73-44.1,286.81-19.55,286.84,0"/><path class="cls-1" d="M66.54,0c-4.25-4.13-7.35-8.05-7.36-13.02-.03-12.53,.08-25.06-.05-37.59-.07-7.31-2.59-13.82-9.54-16.93-11.75-5.25-23.61,2.95-23.54,14.42,.1,16.04,.06,25.4,.06,41.44C26.11-6.84,28.15-4.17,30.92,0"/><path class="cls-1" d="M176.55-60.13c-.15,20.21-.05,35.89-.05,56.1,0,1.53,.77,3.21,2.2,4.03"/><path class="cls-1" d="M148.42,0c-4.93-4.17-8.4-9.97-8.4-14.58,0-10.69-.86-33.87-1.26-44.55"/><path class="cls-1" d="M277.79,0c2.47-2.12,3.08-4.83,3.06-8.01-.1-15.7-.04-31.41-.05-47.11,0-6.49-4.39-11.53-10.03-11.53s-10.32,5.06-9.95,11.52c.47,8.23-1.8,14.32-10.06,17.65-5,2.02-7.3,6.23-7.13,11.93C243.89-16.87,243.69-8.69,243.69,0"/><path class="cls-1" d="M73.66-60.12c.51,1.19,.52,2.65,.52,3.99,.04,8.69,.52,17.41-.12,26.05-.65,8.83,3.82,15.34,8.19,22.04C84.09-5.24,86.2-2.6,88.3,0"/><path class="cls-1" d="M100.37,0c-.17-2.66-.03-5.84-.1-8.51-.12-4.85-3.84-9.74-8.52-9.91-8.25-.3-10.02-4.67-10.02-12.15,0-10.36-.4-20.74,.13-31.07"/><path class="cls-1" d="M322.94-64.61c-2.95,1.65-5.69,3.65-8.54,5.48-4.77,3.05-6.51,7.61-6.51,13.03,0,15.54,0,30.57,0,46.1"/><path class="cls-1" d="M56.16,0c-2.52-2.51-3.76-4.98-3.88-8.02-.37-9.68-.14-19.37-.14-29.06,0-2.51,.01-5.01,0-7.52-.03-6.01-2.88-9.02-8.52-9.02s-8.49,3.08-8.51,9.02c-.04,12.53-.02,15.84-.02,28.37C35.09-10.59,37.38-6.54,41.23,0"/><path class="cls-1" d="M334.99-67.65c.13,3.64-1.15,6.42-4.05,8.52-3.01,2.18-5.91,4.52-9.05,6.47-3.85,2.38-5.01,5.84-5,10.07C316.92-28.23,316.9-14.37,316.9,0"/><path class="cls-1" d="M341.97,0c0-12.03,.05-23.55-.02-35.58-.03-4.91-3.41-9.27-7.5-10.02-4.66-.86-9.13,1.5-10.98,6.03-.49,1.2-.52,2.65-.53,3.99C322.9-23.55,322.92-12.03,322.92,0"/><path class="cls-1" d="M.96-76.17C1.04-50.61,1-25.56,1,0"/><path class="cls-1" d="M112.78-34.07C112.8-22.55,112.49-11.53,112.32,0"/><path class="cls-1" d="M268.76,0c0-6.85,.01-13.19,0-20.04-.01-5.72-2.5-8.52-7.52-8.52-4.49,0-7.43,3.22-7.5,8.52C253.65-13.19,253.72-6.85,253.72,0"/><path class="cls-1" d="M198.53,0c-2.47-3.77-6.57-6.25-6.49-13.02,.03-2.67,.18-5.36-.05-8.01-.22-2.57-1.17-4.58-4.46-4.58s-4.34,2.01-4.45,4.57c-.21,4.84-.11,7.63-.11,12.42,.4,3.39,2.13,6.39,5.42,8.62"/><path class="cls-1" d="M44.13-43.6c0,12.53,0,19.09,0,31.62C44.13-9,45.02-4.56,48.14,0"/><path class="cls-1" d="M327.93,0c0-8.85,.09-17.2-.05-26.05-.05-3.4,.39-6.26,3.97-7.41,3.28,1.4,4.23,3.94,4.16,7.41C335.83-17.2,335.96-8.85,335.96,0"/><path class="cls-1" d="M161.46,0c2.01-3.28,7.02-3.41,9.03,0"/></g><g><path class="cls-1" d="M0,118.37c-3.7-3.95-.65-11.32-7.19-14.23-3.5,.74-5.1,2.87-4.88,6.62"/><path class="cls-1" d="M0,129.3c-.8-2.41-5.44-4.2-7.99-2.92-2.71,1.36-5.3,3.06-5.11,6.94,.23,4.67-.08,9.36,.1,14.03"/><path class="cls-1" d="M-12.04,0c0,1.5,.16,4.03-.03,5.51-1.06,8.37,2.65,14.46,8.57,20.03,1.1,1.04,2.57,2.89,3.5,5.42"/><path class="cls-1" d="M-6.03,0c-.14,5.18,.58,11.41,6.03,14.62"/></g><g><path class="cls-1" d="M364.01,73.25c-7.86-3.27-8.99-4.5-8.99-12.61,0-9.02,.12-18.04,.06-27.06-.06-11.08-2.29-16.32-7.08-18.97"/><path class="cls-1" d="M348,30.97c.74,2.61,1.91,10.82,1.91,20.16,0,16.87,.14,33.74,.05,50.62-.02,3.61,.65,6.57,4.04,8.55,4.76,2.78,6.2,6.93,6.15,12.5-.25,29.9-.04,62.31,0,92.21"/><path class="cls-1" d="M348,118.37c3.61,3.2,6.05,8.53,6.04,13.44-.04,27.9-.02,55.29-.02,83.19"/><path class="cls-1" d="M348,129.3c.81,2.16,.95,5.68,.96,9.52,.09,25.56,.04,50.61,.04,76.17"/></g><g><path class="cls-1" d="M188.39,215c2.35,2.02,3.18,3.04,3.18,5.51"/><path class="cls-1" d="M286.75,242.06c0-13.83,8.09-18.37,8.09-27.06"/><path class="cls-1" d="M307.88,215c0,5.88-5.65,10.02-9.12,13.95"/><path class="cls-1" d="M148.42,215c3.82,3.67,5.65,8.51,3.5,14.53-1.05,2.93-2.45,5.32-5.43,7.14"/><path class="cls-1" d="M170.48,215c2.45,3.48,4.72,6.06,7.02,9.28,2.36,3.3,3.13,6.64,3.1,11.27"/><path class="cls-1" d="M310.37,232.02c4.74-4.26,6.53-10.45,6.53-17.02"/><path class="cls-1" d="M198.53,215c2.68,3.71,3.2,14.45,4.2,21.03,.91,5.97,5.65,9.32,11.88,8.97"/><path class="cls-1" d="M66.54,215c2.8,2.61,6.42,6.59,8.73,8.97,5.65,5.82,7.83,12.58,7.04,20.6"/><path class="cls-1" d="M327.93,215c0,3.84,.73,8.87-.19,12.48-1.12,4.43-3.49,8.46-7.27,11.65"/><path class="cls-1" d="M161.46,215c-2.41,3.52-4.95,9.48-4.95,24.05"/><path class="cls-1" d="M322.92,215c0,10.23-2.02,16.72-8.48,22.6"/><path class="cls-1" d="M72.7,241.06c.16-7.03-5.09-11.35-8.57-16.5-2.05-3.04-5.7-7.53-7.97-9.56"/><path class="cls-1" d="M1,215c0,6.22,6.51,11.5,10.13,16.46,2.63,3.6,4.04,7.16,3.96,11.61"/><path class="cls-1" d="M20.13,239.06c.12-3.95-1.25-7.05-3.55-10.05-3.28-4.27-10.56-9.22-10.56-14.01"/><path class="cls-1" d="M48.14,215c1.85,2.95,4.05,6.19,4.05,13.57"/><path class="cls-1" d="M178.71,215c4.24,3.2,8.05,7.2,7.96,14.54"/><path class="cls-1" d="M255.73,237.05c-1.69-.63-3.35-1.31-5.01-2-5.15-2.13-7.68-5.79-7.07-11.53,.26-2.48,.04-6.01,.04-8.52"/><path class="cls-1" d="M286.84,215c0,8.5-4.08,6.62-4.08,15.04"/><path class="cls-1" d="M46.08,231.4c0-7.78-3.18-13.02-4.85-16.4"/><path class="cls-1" d="M18.32,215c1.19,4.21,12.85,5.1,12.85,18.55"/><path class="cls-1" d="M134.47,215c5.22,13.37,3.94,19.21-.21,21.84"/><path class="cls-1" d="M103.7,244.95c7.49-5.42,12.6-9.27,19.49-15.44,3.14-2.82,5.18-8.38,5.18-14.5"/><path class="cls-1" d="M80.25,215c3.9,4.09,6.41,9.81,7.33,14.69,.85,4.49,1.23,10.35,5.13,13.94"/><path class="cls-1" d="M12.16,215c0,6.22,13.49,6.97,13.49,22.56"/><path class="cls-1" d="M277.79,215c-1.94,1.97-2.46,4.18-2.48,6.17"/><path class="cls-1" d="M30.92,215c2.77,4.44,7.23,6.29,7.23,16.54"/><path class="cls-1" d="M88.3,215c6.67,8.89,3.9,13.57,9.9,21.64,1.77,2.38,4.21,1.87,6.05,.35,3.83-3.15,7.41-6.62,11.08-9.97,3.26-2.97,4.01-6.3,4.01-12.03"/><path class="cls-1" d="M253.72,215c0,2.22-.05,5.47,.58,7.49,1.44,4.65,4.53,6.38,8.95,5.54,3.36-.64,5.45-3.67,5.51-8.02,.02-1.34,0-3.68,0-5.01"/><path class="cls-1" d="M335.96,215c0,1.5,.16,4.03-.03,5.51-1.06,8.37,2.65,14.46,8.57,20.03,1.1,1.04,2.57,2.89,3.5,5.42"/><path class="cls-1" d="M341.97,215c-.14,5.18,.58,11.41,6.03,14.62"/><path class="cls-1" d="M100.37,215c0,5.23,2.77,9.48,5.54,9.48,3.07,0,6.4-4.48,6.4-9.48"/></g></g></g></g></svg>