<svg xmlns="http://www.w3.org/2000/svg" viewBox="0 0 460 210">
<defs><style>.cls-1{fill:#da4d6c;}.cls-1,.cls-2,.cls-3,.cls-4{stroke:#000100;stroke-linecap:round;stroke-linejoin:round;stroke-width:6px;}.cls-2{fill:#f29555;}.cls-3{fill:#c6d781;}.cls-4{fill:none;}</style></defs>
<g id="Layer_2" data-name="Layer 2"><g id="Layer_1-2" data-name="Layer 1"><path class="cls-1" d="M407.11,17.3A101.53,101.53,0,0,0,355,3V105l97.5,30.06A102.16,102.16,0,0,0,407.11,17.3Z"/><path class="cls-2" d="M452.5,135.06A102,102,0,1,1,355,3V105Z"/><path class="cls-3" d="M105,207a102,102,0,0,0,99.32-78.68L105,105V3a102,102,0,0,0,0,204Z"/><path class="cls-2" d="M204.32,128.32A102.08,102.08,0,0,0,105,3V105Z"/><line class="cls-4" x1="105" y1="3" x2="355" y2="3"/><line class="cls-4" x1="204.32" y1="128.32" x2="300.82" y2="191.43"/></g></g></svg>