<svg xmlns="http://www.w3.org/2000/svg" viewBox="0 0 460 210"><defs><style>.cls-1{fill:#f29555;}.cls-1,.cls-2,.cls-3,.cls-4{stroke:#000100;stroke-linecap:round;stroke-linejoin:round;stroke-width:6px;}.cls-2{fill:#c6d781;}.cls-3{fill:#da4d6c;}.cls-4{fill:none;}</style></defs><g id="Layer_2" data-name="Layer 2"><g id="Layer_1-2" data-name="Layer 1"><path class="cls-1" d="M157.11,17.3A101.53,101.53,0,0,0,105,3V105l97.5,30.06A102.16,102.16,0,0,0,157.11,17.3Z"/><path class="cls-2" d="M202.5,135.06A102,102,0,1,1,105,3V105Z"/><path class="cls-1" d="M355,207a102,102,0,0,0,99.32-78.68L355,105V3a102,102,0,0,0,0,204Z"/><path class="cls-3" d="M454.32,128.32A102.08,102.08,0,0,0,355,3V105Z"/><line class="cls-4" x1="105" y1="3" x2="355" y2="3"/><line class="cls-4" x1="202.5" y1="135.06" x2="304.8" y2="193.8"/></g></g></svg>