<svg xmlns="http://www.w3.org/2000/svg" viewBox="0 0 458 208"><defs><style>.cls-1{fill:#da4d6c;}.cls-1,.cls-2,.cls-3,.cls-5{stroke:#140e1a;stroke-linecap:round;stroke-linejoin:round;stroke-width:4px;}.cls-2{fill:#f29555;}.cls-3{fill:#c6d781;}.cls-4{fill:#140e1a;}.cls-5{fill:none;}</style></defs><g id="Layer_2" data-name="Layer 2"><g id="Layer_1-2" data-name="Layer 1"><path class="cls-1" d="M406.11,16.3A101.53,101.53,0,0,0,354,2V104l97.5,30.06A102.16,102.16,0,0,0,406.11,16.3Z"/><path class="cls-2" d="M451.5,134.06A102,102,0,1,1,354,2V104Z"/><path class="cls-3" d="M104,206a102,102,0,0,0,99.32-78.68L104,104V2a102,102,0,0,0,0,204Z"/><path class="cls-2" d="M203.32,127.32A102.08,102.08,0,0,0,104,2V104Z"/><path class="cls-4" d="M135.93,55.64h1.68l2,4.14h3.3l-2.17-4.4a3.57,3.57,0,0,0,2.68-3.5c0-2.18-1.68-3.74-4.45-3.74h-5.91V59.78h2.86Zm0-5.15h2.88c1.1,0,1.76.58,1.76,1.38s-.66,1.43-1.76,1.43h-2.88Z"/><path class="cls-4" d="M146.69,58.85,145.46,61h1.46l.85-1.45a6.13,6.13,0,0,0,2.49.52A5.84,5.84,0,0,0,156.17,54a6,6,0,0,0-2.33-4.89L155.07,47h-1.46l-.85,1.44a6.13,6.13,0,0,0-2.5-.51,5.83,5.83,0,0,0-5.9,6.05A6,6,0,0,0,146.69,58.85ZM153.31,54c0,1.71-1,3.56-3.05,3.56a2.67,2.67,0,0,1-1.19-.25l3.39-5.84A4.11,4.11,0,0,1,153.31,54Zm-3.05-3.56a2.86,2.86,0,0,1,1.2.25l-3.39,5.84a4,4,0,0,1-.85-2.53C147.22,52.25,148.23,50.4,150.26,50.4Z"/><path class="cls-4" d="M168.32,54a5.76,5.76,0,0,0-6-5.82h-4.84V59.78h4.84A5.76,5.76,0,0,0,168.32,54Zm-8,3.38V50.58H162a3.38,3.38,0,1,1,0,6.76Z"/><rect class="cls-4" x="169.35" y="52.82" width="4.77" height="2.28"/><polygon class="cls-4" points="123.11 64.23 120.24 64.23 120.24 75.87 128.54 75.87 128.54 73.38 123.11 73.38 123.11 64.23"/><rect class="cls-4" x="129.87" y="64.23" width="2.86" height="11.64"/><path class="cls-4" d="M138.88,66.24a1.74,1.74,0,0,1,1.87,1.5h2.74c-.12-2.33-1.88-3.74-4.59-3.74s-4.54,1.53-4.54,3.62c0,1.93,1.08,2.88,3,3.26l2.43.48c.86.17,1.24.55,1.24,1.15,0,.83-.74,1.35-1.91,1.35a2.08,2.08,0,0,1-2.24-1.71h-2.78c.25,2.41,2.13,3.95,5,3.95s4.72-1.61,4.72-3.95c0-1.83-1-3-3-3.31l-2.64-.5c-.7-.14-1-.38-1-.93C137.14,66.64,137.82,66.24,138.88,66.24Z"/><polygon class="cls-4" points="154.2 64.23 144.22 64.23 144.22 66.71 147.78 66.71 147.78 75.87 150.64 75.87 150.64 66.71 154.2 66.71 154.2 64.23"/><polygon class="cls-4" points="164.22 66.71 164.22 64.23 155.36 64.23 155.36 75.87 164.35 75.87 164.35 73.39 158.22 73.39 158.22 71.2 164.01 71.2 164.01 68.72 158.22 68.72 158.22 66.71 164.22 66.71"/><path class="cls-4" d="M165.85,64.23V75.87h4.84a5.82,5.82,0,1,0,0-11.64Zm8,5.82a3.28,3.28,0,0,1-3.49,3.38h-1.63V66.67h1.63A3.29,3.29,0,0,1,173.81,70.05Z"/><polygon class="cls-4" points="186.95 73.39 180.81 73.39 180.81 71.2 186.6 71.2 186.6 68.72 180.81 68.72 180.81 66.71 186.82 66.71 186.82 64.23 177.95 64.23 177.95 75.87 186.95 75.87 186.95 73.39"/><rect class="cls-4" x="113.14" y="80.32" width="2.86" height="11.64"/><polygon class="cls-4" points="125.83 87.39 120.42 80.32 117.83 80.32 117.83 91.96 120.54 91.96 120.54 84.89 125.92 91.96 128.54 91.96 128.54 80.32 125.83 80.32 125.83 87.39"/><path class="cls-4" d="M136.53,84.93l-2.64-.5c-.7-.14-1-.39-1-.93,0-.77.68-1.17,1.74-1.17a1.73,1.73,0,0,1,1.86,1.5h2.75c-.12-2.33-1.88-3.74-4.59-3.74s-4.54,1.53-4.54,3.62c0,1.93,1.08,2.88,3,3.26l2.43.48c.86.17,1.24.55,1.24,1.15,0,.83-.74,1.35-1.91,1.35a2.08,2.08,0,0,1-2.24-1.71h-2.78c.25,2.41,2.13,4,5,4s4.72-1.61,4.72-4C139.54,86.41,138.49,85.29,136.53,84.93Z"/><polygon class="cls-4" points="143.68 87.29 149.47 87.29 149.47 84.81 143.68 84.81 143.68 82.8 149.68 82.8 149.68 80.32 140.82 80.32 140.82 91.96 149.82 91.96 149.82 89.48 143.68 89.48 143.68 87.29"/><polygon class="cls-4" points="161.89 80.32 158.43 80.32 154.17 84.76 154.17 80.32 151.31 80.32 151.31 91.96 154.17 91.96 154.17 88.3 155.57 86.81 158.74 91.96 162.05 91.96 157.61 84.86 161.89 80.32"/><polygon class="cls-4" points="162.3 82.8 165.86 82.8 165.86 91.96 168.72 91.96 168.72 82.8 172.28 82.8 172.28 80.32 162.3 80.32 162.3 82.8"/><polygon class="cls-4" points="176.3 87.29 182.09 87.29 182.09 84.81 176.3 84.81 176.3 82.8 182.3 82.8 182.3 80.32 173.44 80.32 173.44 91.96 182.44 91.96 182.44 89.48 176.3 89.48 176.3 87.29"/><path class="cls-4" d="M194.29,84.06c0-2.18-1.68-3.74-4.46-3.74h-5.9V92h2.86V87.82h1.68l2,4.14h3.29l-2.16-4.41A3.56,3.56,0,0,0,194.29,84.06Zm-4.62,1.41h-2.88V82.66h2.88c1.09,0,1.76.59,1.76,1.38S190.76,85.47,189.67,85.47Z"/><polygon class="cls-4" points="364.58 70.93 368.14 70.93 368.14 80.09 371 80.09 371 70.93 374.56 70.93 374.56 68.45 364.58 68.45 364.58 70.93"/><rect class="cls-4" x="375.8" y="68.45" width="2.86" height="11.64"/><polygon class="cls-4" points="388.79 77.6 383.35 77.6 383.35 68.45 380.49 68.45 380.49 80.09 388.79 80.09 388.79 77.6"/><path class="cls-4" d="M399.66,76.81A2.69,2.69,0,0,0,397.43,74a2.53,2.53,0,0,0,1.78-2.58c0-1.81-1.34-3-3.57-3H390V80.09h5.47C398.08,80.09,399.66,78.86,399.66,76.81Zm-6.83-6H395c.88,0,1.36.43,1.36,1.08S395.84,73,395.06,73h-2.23Zm0,7V75.32h2.46c1,0,1.55.46,1.55,1.21s-.62,1.23-1.5,1.23Z"/><path class="cls-4" d="M408.14,77.78l.8,2.31h3l-4.52-11.64h-3l-4.52,11.64h3l.8-2.31Zm-2.24-6.49,1.38,4h-2.76Z"/><path class="cls-4" d="M423.45,74.83V73.74h-6v2.39h3.08a2.48,2.48,0,0,1-2.64,1.8c-2,0-3-1.7-3-3.66,0-1.8,1.11-3.56,3.06-3.56a2.52,2.52,0,0,1,2.51,1.51h2.89c-.56-2.51-2.56-4-5.47-4A5.83,5.83,0,0,0,412,74.27c0,3.21,2,6,5.89,6A5.18,5.18,0,0,0,423.45,74.83Z"/><polygon class="cls-4" points="427.71 75.42 433.5 75.42 433.5 72.94 427.71 72.94 427.71 70.93 433.71 70.93 433.71 68.45 424.85 68.45 424.85 80.09 433.84 80.09 433.84 77.61 427.71 77.61 427.71 75.42"/><rect class="cls-4" x="435.09" y="73.13" width="4.77" height="2.28"/><path class="cls-4" d="M383.73,92.22h3.07a2.47,2.47,0,0,1-2.64,1.8c-2,0-3-1.7-3-3.66,0-1.8,1.12-3.56,3.06-3.56a2.52,2.52,0,0,1,2.51,1.51h2.9c-.57-2.51-2.56-4-5.48-4a5.82,5.82,0,0,0-5.85,6.06c0,3.21,2,6,5.89,6a5.19,5.19,0,0,0,5.59-5.49V89.83h-6Z"/><path class="cls-4" d="M394.42,84.54l-4.53,11.64h3l.79-2.31h4.49l.8,2.31h3l-4.53-11.64Zm.13,6.85,1.38-4,1.38,4Z"/><polygon class="cls-4" points="410.93 91.61 405.52 84.54 402.93 84.54 402.93 96.18 405.64 96.18 405.64 89.11 411.03 96.18 413.64 96.18 413.64 84.54 410.93 84.54 410.93 91.61"/><path class="cls-4" d="M420.42,92.22h3.07a2.47,2.47,0,0,1-2.64,1.8c-2,0-3-1.7-3-3.66,0-1.8,1.12-3.56,3.06-3.56a2.51,2.51,0,0,1,2.51,1.51h2.9c-.57-2.51-2.56-4-5.47-4A5.82,5.82,0,0,0,415,90.36c0,3.21,2,6,5.89,6a5.19,5.19,0,0,0,5.59-5.49V89.83h-6Z"/><line class="cls-5" x1="104" y1="2" x2="354" y2="2"/><line class="cls-5" x1="203.32" y1="127.32" x2="299.82" y2="190.43"/></g></g></svg>