<?xml version="1.0" encoding="UTF-8"?><svg id="Layer_2" xmlns="http://www.w3.org/2000/svg" viewBox="0 0 555.91 480"><g id="Layer_1-2"><g><path d="M71.69,62.78L120.9,0h-28.85L51.97,50.69c-3.18,4.03-8.7,6.58-13.79,6.58-7.85,0-12.73-4.88-12.73-12.51V0H0V144.22H25.45v-49c0-7.63,4.88-12.51,12.51-12.51,5.3,0,10.82,2.76,14,6.58l44.75,54.93h30.12l-55.14-68.29c-3.18-4.03-3.18-9.12,0-13.15Z"/><path d="M243.65,123.01h-61.5c-7.64,0-12.73-5.09-12.73-12.73v-16.75c0-7.64,5.09-12.73,12.73-12.73h59.38v-20.15h-59.38c-7.64,0-12.73-5.09-12.73-12.72v-14.01c0-7.63,5.09-12.72,12.73-12.72h61.08V0h-99.26V144.22h99.68v-21.21Z"/><path d="M295.77,40.3c0-5.09,3.4-8.48,8.49-8.48,4.03,0,7.42,2.33,8.69,5.94l40.51,106.47h51.11V0h-25.45V99.68c0,5.08-3.4,8.48-8.49,8.48-4.03,0-7.42-2.34-8.69-5.94L323.13,0h-52.81V144.22h25.45V40.3Z"/><path d="M555.91,72.11c0-42.63-29.05-72.11-70.2-72.11h-53.02V144.22h53.02c41.36,0,70.2-29.48,70.2-72.11Zm-97.77,36.06V36.05c0-7.64,5.09-12.73,12.73-12.73h14.85c27.15,0,44.75,19.52,44.75,48.78s-17.6,48.78-44.75,48.78h-14.85c-7.64,0-12.73-5.08-12.73-12.72Z"/><path d="M123.23,240c0-42.63-29.05-72.11-70.2-72.11H0v144.22H53.03c41.36,0,70.2-29.48,70.2-72.11Zm-97.77,36.06v-72.11c0-7.64,5.09-12.73,12.73-12.73h14.85c27.15,0,44.75,19.52,44.75,48.78s-17.6,48.78-44.75,48.78h-14.85c-7.64,0-12.73-5.08-12.73-12.72Z"/><path d="M243.85,290.9h-24.59c-7.63,0-12.72-5.09-12.72-12.73v-76.35c0-7.63,5.09-12.72,12.72-12.72h24.59v-21.21h-100.08v21.21h24.59c7.64,0,12.72,5.09,12.72,12.72v76.35c0,7.64-5.09,12.73-12.72,12.73h-24.59v21.21h100.08v-21.21Z"/><path d="M350.17,312.11v-111.35c0-7.63,5.09-12.72,12.73-12.72h40.29v-20.15h-131.5v20.15h40.3c7.64,0,12.72,5.09,12.72,12.72v111.35h25.45Z"/><path d="M71.69,398.56l49.21-62.78h-28.85l-40.08,50.69c-3.18,4.03-8.7,6.58-13.79,6.58-7.85,0-12.73-4.88-12.73-12.51v-44.75H0v144.22H25.45v-49c0-7.63,4.88-12.51,12.51-12.51,5.3,0,10.82,2.76,14,6.58l44.75,54.93h30.12l-55.14-68.29c-3.18-4.03-3.18-9.12,0-13.15Z"/><path d="M244.5,408.74c8.27-7.42,12.72-17.82,12.72-30.54,0-25.46-18.88-42.42-47.51-42.42h-65.75v144.22h25.45v-46.66c0-7.64,5.09-12.73,12.73-12.73h15.06c5.09,0,9.97,2.97,12.09,7.64l25.02,51.75h28.21l-24.18-50.05c-3.39-7.21-1.48-14.43,6.15-21.21Zm-34.78-9.34h-27.57c-7.64,0-12.73-5.09-12.73-12.72v-16.97c0-7.63,5.09-12.72,12.73-12.72h27.57c13.57,0,22.06,8.06,22.06,21.21s-8.48,21.2-22.06,21.2Z"/><path d="M346.99,389.23c-1.91,3.18-5.73,5.3-9.54,5.3s-7.64-2.12-9.55-5.3l-32.45-53.45h-28.21l53.02,84.63c2.76,4.24,4.45,10.6,4.45,15.69v43.91h25.45v-43.91c0-5.09,1.7-11.45,4.45-15.69l53.02-84.63h-28.21l-32.45,53.45Z"/><path d="M542.98,377.77c0-25.02-19.3-41.99-48.78-41.99h-61.51v144.22h63.63c29.06,0,48.78-17.82,48.78-44.33,0-14.64-6.15-19.93-6.15-32.02,0-9.76,4.03-14.42,4.03-25.88Zm-84.84-8.06c0-7.63,5.09-12.72,12.73-12.72h23.33c14,0,23.33,7.84,23.33,19.93s-9.33,19.93-23.33,19.93h-23.33c-7.64,0-12.73-5.09-12.73-12.72v-14.43Zm39.24,89.08h-26.51c-7.64,0-12.73-5.09-12.73-12.73v-17.39c0-7.64,5.09-12.73,12.73-12.73h26.51c14,0,23.33,8.49,23.33,21.43s-9.33,21.42-23.33,21.42Z"/></g></g></svg>