<?xml version="1.0" encoding="UTF-8"?><svg id="Layer_2" xmlns="http://www.w3.org/2000/svg" viewBox="0 0 120 56.03"><defs><style>path{fill:#140E1A;}</style></defs><g id="Layer_1-2"><path d="M58.4,4.1c1.33,1.09,2.74,1.09,4.07,0,4.14-3.4,9.93-3.99,13.57-1.06-4.34-.2-8.48,.16-11.96,1.76-.08,.04-.12,.12-.08,.2s.12,.12,.2,.12c6.22-.86,12.2,2.19,14.15,7.12-5.08-2.93-9.27-4.73-14.35-5.59-1.37-.23-2.31,.63-2.31,2.03V29.59h-2.5V8.68c0-1.41-.94-2.27-2.31-2.03-5.08,.86-9.27,2.66-14.35,5.59,1.95-4.93,7.94-7.98,14.15-7.12,.08,0,.16,0,.2-.08s0-.2-.08-.23c-3.48-1.6-7.62-1.95-11.96-1.76,3.64-2.93,9.42-2.35,13.57,1.06Zm0-2.11c0,1.13,.94,1.99,2.03,1.99s2.03-.86,2.03-1.99-.94-1.99-2.03-1.99-2.03,.86-2.03,1.99Z"/><g><path d="M10.73,53.76v2.06H0v-2.06H2.89c.74,0,1.24-.5,1.24-1.24v-7.43c0-.74-.5-1.24-1.24-1.24H0v-2.06H10.73v2.06h-2.89c-.74,0-1.24,.5-1.24,1.24v7.43c0,.74,.5,1.24,1.24,1.24h2.89Z"/><path d="M15.06,55.82h-2.48v-10.31h6.6c1.73,0,2.89,1.16,2.89,2.89v7.43h-2.48v-7.01c0-.74-.49-1.24-1.24-1.24h-2.06c-.74,0-1.24,.5-1.24,1.24v7.01Z"/><path d="M26.48,52.48c.12,.97,.89,1.59,2.02,1.59,1.03,0,1.71-.52,1.71-1.34,0-.66-.43-1.09-1.32-1.2l-1.63-.21c-1.9-.25-2.95-1.26-2.95-2.8,0-1.92,1.65-3.22,4.04-3.22s3.96,1.24,3.96,3.05h-2.31c-.1-.68-.78-1.09-1.79-1.09s-1.59,.39-1.59,1.03c0,.56,.45,.91,1.36,1.03l1.63,.21c1.96,.25,3.01,1.3,3.01,2.95,0,2.12-1.73,3.55-4.23,3.55s-4.27-1.44-4.33-3.55h2.41Z"/><path d="M39.07,54.07c1.11,0,2.02-.6,2.39-1.61h2.39c-.37,2.12-2.27,3.57-4.72,3.57-3.01,0-5.05-2.15-5.05-5.36s2-5.36,4.95-5.36,4.95,2.17,4.95,5.36v.82h-6.11c-.54,0-.85,.31-.85,.91,0,.97,.85,1.67,2.04,1.67Zm.04-6.81c-1.24,0-2.08,.64-2.08,1.53,0,.52,.29,.85,.83,.85h2.46c.52,0,.82-.33,.82-.87,0-.89-.82-1.51-2.02-1.51Z"/><path d="M48.61,55.82h-2.48v-14.03h2.48v6.29c0,.74,.5,1.24,1.24,1.24h.12c.62,0,1.24-.37,1.53-.91l1.59-2.91h2.66l-2.29,4.1c-.25,.43-.27,1.03-.04,1.47l2.48,4.74h-2.76l-1.67-3.3c-.27-.56-.87-.93-1.49-.93h-.12c-.74,0-1.24,.49-1.24,1.24v2.99Z"/><path d="M59.09,48.81c0-.74-.5-1.24-1.24-1.24h-1.65v-2.06h1.65c.74,0,1.24-.5,1.24-1.24v-1.44h2.48v1.44c0,.74,.5,1.24,1.24,1.24h1.86v2.06h-1.86c-.74,0-1.24,.5-1.24,1.24v3.71c0,.74,.5,1.24,1.24,1.24h1.86v2.06h-2.68c-1.73,0-2.89-1.16-2.89-2.89v-4.13Z"/><path d="M71.05,45.3c3.05,0,5.26,2.25,5.26,5.36s-2.21,5.36-5.26,5.36-5.26-2.25-5.26-5.36,2.21-5.36,5.26-5.36Zm0,8.56c1.61,0,2.68-1.28,2.68-3.2s-1.07-3.2-2.68-3.2-2.68,1.28-2.68,3.2,1.07,3.2,2.68,3.2Z"/><path d="M82.48,47.26c-.99,0-1.73,.62-1.84,1.61h-2.48c0-2.1,1.69-3.57,4.17-3.57s4.25,1.55,4.25,3.86v6.66h-5.32c-1.92,0-3.3-1.32-3.3-3.16s1.38-3.14,3.3-3.14h2.02c.49,0,.82-.33,.82-.82,0-.87-.66-1.44-1.63-1.44Zm.66,6.5c.7,0,1.18-.48,1.18-1.2s-.47-1.18-1.18-1.18h-1.53c-.7,0-1.18,.47-1.18,1.2s.47,1.18,1.18,1.18h1.53Z"/><path d="M90.85,52.48c.12,.97,.89,1.59,2.02,1.59,1.03,0,1.71-.52,1.71-1.34,0-.66-.43-1.09-1.32-1.2l-1.63-.21c-1.9-.25-2.95-1.26-2.95-2.8,0-1.92,1.65-3.22,4.04-3.22s3.96,1.24,3.96,3.05h-2.31c-.1-.68-.78-1.09-1.79-1.09s-1.59,.39-1.59,1.03c0,.56,.45,.91,1.36,1.03l1.63,.21c1.96,.25,3.01,1.3,3.01,2.95,0,2.12-1.73,3.55-4.23,3.55s-4.27-1.44-4.33-3.55h2.41Z"/><path d="M103.44,54.07c1.11,0,2.02-.6,2.39-1.61h2.39c-.37,2.12-2.27,3.57-4.72,3.57-3.01,0-5.05-2.15-5.05-5.36s2-5.36,4.95-5.36,4.95,2.17,4.95,5.36v.82h-6.11c-.54,0-.85,.31-.85,.91,0,.97,.85,1.67,2.04,1.67Zm.04-6.81c-1.24,0-2.08,.64-2.08,1.53,0,.52,.29,.85,.83,.85h2.45c.52,0,.83-.33,.83-.87,0-.89-.83-1.51-2.02-1.51Z"/><path d="M112.99,55.82h-2.48v-10.31h6.6c1.73,0,2.89,1.16,2.89,2.89v7.43h-2.48v-7.01c0-.74-.5-1.24-1.24-1.24h-2.06c-.74,0-1.24,.5-1.24,1.24v7.01Z"/></g></g></svg>