<svg xmlns="http://www.w3.org/2000/svg" viewBox="0 0 160.77 28.7"><defs><style>#Layer_2{fill:#ffffff}</style></defs><g id="Layer_2" data-name="Layer 2"><g id="Layer_1-2" data-name="Layer 1"><path d="M54.81,14.08H52a1.13,1.13,0,0,1-1.2-1.2V5.68A1.14,1.14,0,0,1,52,4.47h2.8v-2H44.41v2h2.8a1.14,1.14,0,0,1,1.2,1.21v7.2a1.13,1.13,0,0,1-1.2,1.2h-2.8v2h10.4Z"/><path d="M59,9.28a1.13,1.13,0,0,1,1.2-1.2h2a1.13,1.13,0,0,1,1.2,1.2v6.8h2.4V8.88A2.65,2.65,0,0,0,63,6.08h-6.4v10H59Z"/><path d="M73.13,10l-1.58-.2c-.88-.12-1.32-.46-1.32-1s.6-1,1.54-1,1.64.4,1.74,1.06h2.24c0-1.76-1.56-3-3.84-3S68,7.14,68,9c0,1.5,1,2.48,2.86,2.72l1.58.2c.86.1,1.28.52,1.28,1.16,0,.8-.66,1.3-1.66,1.3a1.79,1.79,0,0,1-2-1.54H67.74c.06,2,1.79,3.44,4.21,3.44s4.1-1.38,4.1-3.44C76.05,11.24,75,10.22,73.13,10Z"/><path d="M82.35,16.28a4.37,4.37,0,0,0,4.58-3.46H84.61a2.38,2.38,0,0,1-2.33,1.56,1.76,1.76,0,0,1-2-1.62.77.77,0,0,1,.82-.88h5.93v-.8c0-3.1-1.94-5.2-4.81-5.2s-4.8,2.1-4.8,5.2S79.42,16.28,82.35,16.28Zm0-8.5c1.17,0,2,.6,2,1.46a.76.76,0,0,1-.8.84H81.11a.74.74,0,0,1-.81-.82C80.3,8.4,81.12,7.78,82.32,7.78Z"/><path d="M96.25,10.06l2.22-4H95.89L94.35,8.9a1.74,1.74,0,0,1-1.49.88h-.12a1.14,1.14,0,0,1-1.2-1.2V2.47h-2.4V16.08h2.4v-2.9a1.14,1.14,0,0,1,1.2-1.2h.12a1.63,1.63,0,0,1,1.45.9l1.62,3.2h2.68l-2.4-4.6A1.55,1.55,0,0,1,96.25,10.06Z"/><path d="M104.11,4.88V3.68H101.7v1.2a1.14,1.14,0,0,1-1.2,1.2H98.9v2h1.6a1.13,1.13,0,0,1,1.2,1.2v4a2.65,2.65,0,0,0,2.8,2.8h2.61v-2h-1.8a1.13,1.13,0,0,1-1.2-1.2V9.28a1.13,1.13,0,0,1,1.2-1.2h1.8v-2h-1.8A1.13,1.13,0,0,1,104.11,4.88Z"/><path d="M113.3,5.88a5,5,0,0,0-5.1,5.2,5.11,5.11,0,1,0,10.21,0A5,5,0,0,0,113.3,5.88Zm0,8.3c-1.56,0-2.6-1.24-2.6-3.1s1-3.1,2.6-3.1,2.61,1.24,2.61,3.1S114.86,14.18,113.3,14.18Z"/><path d="M124.24,5.88c-2.4,0-4,1.42-4,3.46h2.4a1.69,1.69,0,0,1,1.78-1.56A1.43,1.43,0,0,1,126,9.18a.76.76,0,0,1-.8.8h-2a3.05,3.05,0,1,0,0,6.1h5.16V9.62C128.36,7.38,126.7,5.88,124.24,5.88Zm.78,8.2h-1.48a1.08,1.08,0,0,1-1.14-1.14,1.09,1.09,0,0,1,1.14-1.16H125a1.08,1.08,0,0,1,1.14,1.14A1.09,1.09,0,0,1,125,14.08Z"/><path d="M135.54,10,134,9.78c-.88-.12-1.32-.46-1.32-1s.6-1,1.54-1,1.64.4,1.74,1.06h2.24c0-1.76-1.56-3-3.84-3S130.4,7.14,130.4,9c0,1.5,1,2.48,2.86,2.72l1.58.2c.86.1,1.28.52,1.28,1.16,0,.8-.66,1.3-1.66,1.3a1.79,1.79,0,0,1-2-1.54h-2.34c.06,2,1.78,3.44,4.2,3.44s4.1-1.38,4.1-3.44C138.46,11.24,137.44,10.22,135.54,10Z"/><path d="M144.66,5.88c-2.86,0-4.8,2.1-4.8,5.2s2,5.2,4.9,5.2a4.38,4.38,0,0,0,4.59-3.46H147a2.37,2.37,0,0,1-2.32,1.56,1.76,1.76,0,0,1-2-1.62.77.77,0,0,1,.82-.88h5.92v-.8C149.46,8,147.52,5.88,144.66,5.88Zm1.24,4.2h-2.38a.74.74,0,0,1-.8-.82c0-.86.82-1.48,2-1.48s2,.6,2,1.46A.76.76,0,0,1,145.9,10.08Z"/><path d="M158,6.08h-6.4v10H154V9.28a1.13,1.13,0,0,1,1.2-1.2h2a1.13,1.13,0,0,1,1.2,1.2v6.8h2.41V8.88A2.65,2.65,0,0,0,158,6.08Z"/><path d="M17.36,3.87a2,2,0,0,0,2-1.94,2,2,0,0,0-3.94,0A2,2,0,0,0,17.36,3.87Z"/><path d="M21,5a.22.22,0,0,1-.19-.12.14.14,0,0,1,.08-.19c3.37-1.55,7.39-1.89,11.6-1.7C29,.11,23.35.68,19.33,4a2.84,2.84,0,0,1-3.94,0C11.37.68,5.76.11,2.24,3c4.2-.19,8.22.15,11.6,1.7a.19.19,0,0,1,.07.23c0,.08-.11.08-.19.08C7.7,4.13,1.9,7.09,0,11.87,4.93,9,9,7.28,13.91,6.44a1.83,1.83,0,0,1,2.24,2V28.7h2.43V8.42a1.82,1.82,0,0,1,2.23-2c4.93.84,9,2.58,13.91,5.43C32.83,7.09,27,4.13,21,5Z"/><polygon points="50.04 21.48 48.91 21.48 45.71 24.15 46.24 21.48 45.36 21.48 44.24 27.07 45.12 27.07 45.48 25.29 46.76 24.23 48.03 27.07 48.95 27.07 47.43 23.71 50.04 21.48"/><path d="M51.76,22.85a2.31,2.31,0,0,0-2.24,2.46,1.77,1.77,0,0,0,1.86,1.86,2,2,0,0,0,1.92-1.32h-.83a1.11,1.11,0,0,1-1,.66,1.05,1.05,0,0,1-1.07-1.17.71.71,0,0,1,0-.15h3.07l0-.07A1.74,1.74,0,0,0,51.76,22.85Zm-1.27,1.7a1.34,1.34,0,0,1,1.23-1.06,1,1,0,0,1,1,1.06Z"/><path d="M56.77,22.85a1.33,1.33,0,0,0-1.24.75l.13-.65h-.84L54,27.07h.86l.47-2.36c.13-.66.52-1.12,1.12-1.12s.87.38.74,1l-.48,2.44h.85l.5-2.48C58.26,23.55,57.72,22.85,56.77,22.85Z"/><path d="M62.37,23.71A1.43,1.43,0,0,0,61,22.85a2.34,2.34,0,0,0-2.16,2.46,1.69,1.69,0,0,0,1.66,1.86,1.53,1.53,0,0,0,1.33-.72l-.11.62h.83l1.17-5.83h-.85Zm-1.64,2.73c-.69,0-1-.5-1-1.18a1.57,1.57,0,0,1,1.35-1.68,1.1,1.1,0,0,1,1.06,1.21A1.55,1.55,0,0,1,60.73,26.44Z"/><path d="M69.18,23.71a1.43,1.43,0,0,0-1.38-.86,2.33,2.33,0,0,0-2.15,2.46,1.69,1.69,0,0,0,1.66,1.86,1.53,1.53,0,0,0,1.33-.72l-.12.62h.84l1.17-5.83h-.86Zm-1.64,2.73c-.69,0-1-.5-1-1.18a1.57,1.57,0,0,1,1.35-1.68,1.11,1.11,0,0,1,1.06,1.21A1.56,1.56,0,0,1,67.54,26.44Z"/><polygon points="71.58 22.28 72.47 22.28 72.66 21.34 71.77 21.34 71.58 22.28"/><polygon points="70.64 27.07 71.5 27.07 72.31 22.95 71.46 22.95 70.64 27.07"/><path d="M74.91,21.85h-.86L73.83,23h-.72l-.15.7h.73l-.42,2.12c-.16.82.21,1.35,1,1.35A1.81,1.81,0,0,0,75,27l.14-.73a1.19,1.19,0,0,1-.5.11c-.43,0-.59-.21-.5-.65l.42-2.09h1.09l.15-.7h-1.1Z"/><polygon points="82.07 22.95 81 22.95 78.88 24.8 79.59 21.24 78.73 21.24 77.56 27.07 78.43 27.07 78.64 25.96 79.56 25.17 80.37 27.07 81.28 27.07 80.23 24.61 82.07 22.95"/><path d="M85.07,23.75l.16-.8a1.47,1.47,0,0,0-.43-.06,1.33,1.33,0,0,0-1.3,1l.19-.95h-.83L82,27.07h.86l.39-2c.18-.92.66-1.41,1.38-1.41A1.08,1.08,0,0,1,85.07,23.75Z"/><path d="M88.57,23l-1.68,3.13L86.4,23h-.84L86.29,27l-.07.12c-.27.47-.47.76-1,.76a1.48,1.48,0,0,1-.49-.08l-.14.71a2.17,2.17,0,0,0,.69.11c.85,0,1.2-.41,1.66-1.24L89.47,23Z"/><path d="M92.23,22.85a1.6,1.6,0,0,0-1.32.67l.47-2.28h-.86l-1.17,5.83h.85l.16-.82a1.4,1.4,0,0,0,1.38.92,2.33,2.33,0,0,0,2.15-2.46A1.7,1.7,0,0,0,92.23,22.85Zm-.56,3.59a1.1,1.1,0,0,1-1.06-1.21A1.56,1.56,0,0,1,92,23.58c.68,0,1,.49,1,1.17A1.57,1.57,0,0,1,91.67,26.44Z"/></g></g></svg>