<?xml version="1.0" encoding="UTF-8"?><svg id="Layer_2" xmlns="http://www.w3.org/2000/svg" viewBox="0 0 92.08 88.41"><g id="Layer_1-2"><path d="M53.68,4.75l7.63,15.47c1.24,2.51,3.64,4.25,6.41,4.66l17.07,2.48c6.98,1.01,9.77,9.6,4.72,14.52l-12.35,12.04c-2.01,1.96-2.92,4.77-2.45,7.54l2.92,17c1.19,6.95-6.11,12.26-12.35,8.97l-15.27-8.03c-2.48-1.3-5.44-1.3-7.92,0l-15.27,8.03c-6.25,3.28-13.54-2.02-12.35-8.97l2.92-17c.47-2.76-.44-5.58-2.45-7.54L2.58,41.87c-5.05-4.93-2.26-13.51,4.72-14.52l17.07-2.48c2.77-.4,5.17-2.14,6.41-4.66l7.63-15.47c3.12-6.33,12.15-6.33,15.27,0Z"/></g></svg>