<?xml version="1.0" encoding="UTF-8"?><svg id="Layer_2" xmlns="http://www.w3.org/2000/svg" viewBox="0 0 100 95.6"><g id="Layer_1-2"><path d="M54.54,2.82l11.53,23.36c.74,1.49,2.16,2.53,3.81,2.77l25.78,3.75c4.15,.6,5.81,5.71,2.81,8.64l-18.65,18.18c-1.19,1.16-1.74,2.84-1.46,4.48l4.4,25.67c.71,4.14-3.63,7.29-7.35,5.34l-23.05-12.12c-1.48-.78-3.24-.78-4.71,0l-23.05,12.12c-3.72,1.95-8.06-1.2-7.35-5.34l4.4-25.67c.28-1.64-.26-3.32-1.46-4.48L1.54,41.34c-3.01-2.93-1.35-8.04,2.81-8.64l25.78-3.75c1.65-.24,3.08-1.28,3.81-2.77L45.46,2.82c1.86-3.76,7.23-3.76,9.08,0Z"/></g></svg>